<?xml version="1.0" encoding="utf-8"?>
<!-- Generator: Adobe Illustrator 19.1.1, SVG Export Plug-In . SVG Version: 6.00 Build 0)  -->
<svg version="1.1" id="Calque_1" xmlns="http://www.w3.org/2000/svg" xmlns:xlink="http://www.w3.org/1999/xlink" x="0px" y="0px"
	 viewBox="104 96.9 803 661.5" style="enable-background:new 104 96.9 803 661.5;" xml:space="preserve">
<style type="text/css">
	.st0{fill:none;stroke:#000000;stroke-miterlimit:10;}
	.st1{fill:none;stroke:#CC2F2F;stroke-miterlimit:10;}
	.st2{fill:#3F3F3F;}
	.st3{fill:none;stroke:#0DDB07;stroke-miterlimit:10;}
</style>
<path id="gorze" class="st0" d="M222.6,461.7l49.5-18.8l2.8-14.8l20.3,0.3l2.5,23.3L282.9,466l16.8,27l-14.8,38l-9.3,2.3l-17.3-10.5
	h-9.2l-4.3,5.3l-10.3-17.3l-9.8,2l-15.6-32.3L222.6,461.7z"/>
<path id="vaux" class="st0" d="M330.9,386.1l24.3,11.9h24l18.3,12.6l-5.1,8.1l-14-1.8h-51.5L330.9,386.1z"/>
<path id="saulny" class="st0" d="M356.4,249.5l17.8,5l17.8,13.8l25.3-0.3l11,15.8l-1.5,8.3l-46,6.8l-36.9-22.7v-21.3L356.4,249.5z"
	/>
<path id="plesnois" class="st0" d="M415.6,244l6.5,19.2l-5,4.8l-25.3,0.3l-17.7-13.8L415.6,244z"/>
<path id="fèves" class="st0" d="M343.8,254.7l-14.5-5.5l3.8-22.3h17.3l30.1-18.3l29.4-6.5l19.3,15.8H450l0.7,14.7l-18.8,0.3
	l-36.3-10.3l-37.5,15l-1.8,11.5 M356.3,249.2l-12.5,5.5"/>
<path id="norroy-le-veneur" class="st0" d="M358.1,238l37.5-15l35.8,10.1l19.3-0.1l0.9,19.5l-29.5,10.7l-6.5-19.3l-41.5,10.6
	l-17.8-5L358.1,238z"/>
<path id="argancy" class="st0" d="M512.3,235.9l-17.5,4.5l-9.8-19l29.5-60l32.8-8.8l17.8,7.5l-25,26.9l2.8,32.9L512.3,235.9"/>
<path id="rozerieulles" class="st0" d="M375.2,380.7L375.2,380.7l-14.5,6.3l-38.5-23 M375.2,380.7l8.1-16.1l0,0l-43.2-7.3l-22-29
	l-20.3-7l-6.3,25.8l30.8,16.8"/>
<path id="moulins-lès-metz" class="st0" d="M392.3,418.4l11.8-18.8l-16.5-13.9l4.8-7.4l-9-13.8l8.3-5.5l38.5,22.1l17.5,28.4
	l-20.5,17 M392.3,418.4l4.5,10l30.3-1.8"/>
<path id="vigy" class="st0" d="M698.6,179.2l-38.5,31.5l-6.5,7.3l-13.5,3l-42-18.5l3.3-12.8l7.5-34.3l13.8-16l41,7.3L698.6,179.2z"
	/>
<path id="vry" class="st0" d="M763.9,223l-11.5,6.5L741.6,218l-23.5-10l-19.5,38l-34.8,1.5L653.5,218l6.5-7.3l38.5-31.5l28.5-19.5
	L763.9,223z"/>
<path id="novéant-sur-moselle" class="st0" d="M297.6,451.7l14.8,28.8l24.3,27.5l1.5,31.1l17,10.7l3.3,19l-30.3,5l-22.8-9.8
	l-8.5-14.3l-0.3-11.5l-11.8-7.3l14.8-38l-16.8-27L297.6,451.7z"/>
<path id="dornot" class="st0" d="M345.1,486.7l-8.5,21.3l-24.3-27.5L345.1,486.7z"/>
<path id="corny-sur-moselle" class="st0" d="M345.1,486.7l9-1.5l16.8,6l2.8,13.5v11.1l2.3,4.7l6.3,4.4l-3.3,7.3l2.5,20.3l-9.5,17.3
	l-7.3-2l-6.2,1l-3.3-19l-17-10.7l-1.3-31.7L345.1,486.7z"/>
<path id="arry" class="st0" d="M325.1,621l8.8,6.3l-5-16l6.3-10.4l-7-27.1l30.3-5l6.2-1l7.3,2l-1,7.5l-4.8,11.5l-1.5,26.3l2.8,19
	l-37,4l-12-15L325.1,621z"/>
<path id="vittonville" class="st0" d="M307.6,602.8l-2.8,13.6l-28.3,4.8l-6.8-5.8l-1.5-11.5L307.6,602.8z"/>
<path id="pagny-sur-moselle" class="st0" d="M187.1,587.5l9.8,6l2.3-10l8,4l7.3-10.3h9.3l18.5-10.5l31.3,1l2.8,6l-5.5,7.8l3.3,14.8
	l-8.5-8.8l-7,5.5l10,11l-23.3,0.8v-4.3l-46.3,4.3l-13.5-6.8L187.1,587.5z"/>
<path id="prény" class="st0" d="M137.1,625.7l-5-7.7l5.5-8.6l13.5,8.6l19.8-13.3l5-12.5l-1-5.3l5.8-5.5l6.5,6l-1.8,10.5l13.5,6.8
	l46.3-4.3v4.3l-40.8,21l-2.5,9.3l-10.8,4.2l-5.8-5.3l-8.3,4l-4.1-10.7l-7.3,4.8v7.3l-5.3-4.8l-17.2,12.7l-7-4.3l-9.3,0.3v-9.8
	L137.1,625.7z"/>
<path id="jouy-aux-arches" class="st0" d="M362.4,454.7l5.3-10.5l13.5-8.5l-2.8-18.8l14,1.8l4.5,10l2.1-0.1L383.4,482l-12.5,9.3
	l-16.8-6L362.4,454.7z"/>
<path id="augny" class="st0" d="M383.4,482l15.6-53.4l28.1-1.6l10.5,7l2.5,15.8l-6.8,19.3l7.3,13l-4.3,30.3l-6.5,12.7h-12v-12.9
	l-12.7-13l-31.5,5.5l-2.8-13.5L383.4,482z"/>
<path id="fey" class="st0" d="M405.1,499.2l12.6,12.8l0.2,12.8l-17.5,24.8l-19,2.8l-2.5-20.3l3.3-7.3l-6.3-4.4l-2.3-4.7v-11.1
	L405.1,499.2z"/>
<path id="coin-lès-cuvry" class="st0" d="M417.9,524.9h12l6.5-12.7l35-7.5l7.8,14.8l-0.3,9.8l-28,4.5l-7,7.8l-37,18.6l-6.5-10.3
	L417.9,524.9z"/>
<path id="marieulles" class="st0" d="M371.9,569.7l9.5-17.3l19-2.8l6.5,10.3l37-18.6l4.8,20.5l-18.8,17.8l-9.5,10.5l-25.8,6
	l-23.8-19L371.9,569.7z"/>
<path id="pournoy-la-chétive" class="st0" d="M450.9,533.7l28-4.5l4.8,8.3l-35,24.5l-4.8-20.5L450.9,533.7z"/>
<path id="coin-sur-seille" class="st0" d="M448.6,562l35-24.5l12.1-1l-3.8,23.6l-10.6,6.7l-41.6,17.3l-9.9-4.3L448.6,562z"/>
<path id="cuvry" class="st0" d="M440.6,482l47-3.8l6.8,11.7l3.2,35l-1.9,11.6l-12.1,1l-4.8-8.3l0.3-9.8l-7.8-14.8l-35,7.5L440.6,482
	z"/>
<path id="sillegny" class="st0" d="M429.9,579.7l9.9,4.3l41.6-17.3l2.5,39L463.1,644h-16.8l-3.3-14.4l-7.8-3.8l-15-35.5L429.9,579.7
	z"/>
<path id="cheminot" class="st0" d="M435.4,625.7l7.8,3.8l3.3,14.4h16.6l13.5,48.8l-8,14.3l3,8.8h-19l-16.3-9.5l2.3-14.8l-17-27.6
	l3.8-8.9l-11.3-4.5v-11.3L435.4,625.7z"/>
<path id="louvigny" class="st0" d="M483.9,605.7l36.4,0.7l3.8,23.2l3.5,29.3l7.5,44.6l-7.5,5.8l-18,3.5l-16.5-2.8v-11.3l-9.8,0.3
	l-6.8-6.3L463.1,644L483.9,605.7z"/>
<path id="pommerieux" class="st0" d="M491.9,560l21.5,4.8l6.8,22.3v19.2l-36.4-0.7l-2.5-39L491.9,560z"/>
<path id="verny" class="st0" d="M497.6,524.9l26.5,4.3l26.5,44.5l-30.3,13.5l-6.8-22.3l-21.5-4.8L497.6,524.9z"/>
<path id="goin" class="st0" d="M550.6,573.7l5.5-3.7l21.2,2l7.8,39.2l-13.8,8.2l-25.2-2.2l-22,12.3l-3.8-23.2l-0.2-19.7L550.6,573.7
	z"/>
<path id="pournoy-la-grasse" class="st0" d="M557.1,517.5l3.8,13.8l-4.8,38.7l-5.5,3.7l-26.5-44.5L557.1,517.5z"/>
<path id="pagny-lès-goins" class="st0" d="M546.1,617.2l25.2,2.2v37.5l-43.7,2l-3.5-29.3L546.1,617.2z"/>
<path id="vigny" class="st0" d="M585.1,611.2l20.7-3l12.8,27.2l-5.7,10l-30,18.5l-11.7-7v-37.5L585.1,611.2z"/>
<path id="liéhon" class="st0" d="M611.9,557.2l7.3,4.2l2.7,9l-13,10.2l4.8,18.8l-8,8.8l-20.7,3l-7.8-39.2L611.9,557.2z"/>
<path id="silly-en-saulnois" class="st0" d="M621.9,570.4l11.2,1.7l0.7,13.7l-20,13.7l-4.8-18.8L621.9,570.4z"/>
<path id="buchy" class="st0" d="M613.8,599.4l20-13.7l13.2,4.2l1.8,14.2l-30.2,31.3l-12.8-27.2L613.8,599.4z"/>
<path id="solgne" class="st0" d="M618.6,635.4l30.2-31.3l8,0.8l14.8,13.3l6-4.2l1.8,16.3l-7.5,12.2l-28.6,15.7L613,645.4
	L618.6,635.4z"/>
<path id="luppy" class="st0" d="M670.8,572l8.7,2l11.2-12.8l35.7,9l10.7,64.2l-13.2,26.7h-10.8l-11.2-11.5l-4.2,7.3l-8.3-0.5
	l-9.8-9.3l-3.5,6l-2.2-2.7l-1.8-7.8l7.5-12.2l-1.8-16.3l-6,4.2L657,605l-8-0.8l-1.8-14.2L670.8,572z"/>
<path id="pontoy" class="st0" d="M613.1,517l40.5-1.3v2.1l9.8,10l3.3,7.7l6.5,1.2l3.3,9.8l-2.2,7.3l-17-1.2L633.1,572l-11.2-1.7
	l-2.7-9l-7.3-4.2l-9.8-18.2L613.1,517z"/>
<path id="béchy" class="st0" d="M788.9,584l5.5,17.8l-17.8,7l3.3,16.5l-6.3,11.5l-36.7-2.3l-10.6-64.3L788.9,584z"/>
<path id="rémilly" class="st0" d="M705.6,538.9l10.7-20.8l56.3,15.9v6.3h11.3l1.5,5l-8,6.3l1.3,4.5l15.8-1.8l4.8-9l9.8,1.5l3.3,6.5
	v20l4,18.5l8.3,12.3l-15-0.7l-15-1.7l-5.5-17.8l-62.9-13.7l-35.7-9l-1.5-12.5L705.6,538.9z"/>
<path id="aube" class="st0" d="M670.6,510.4l15.3-1.7l1.5-12.2l14.2-5.8l14.7,27.3l-10.7,20.8l-16.5,9.8l-8.2-3.5l-4.3,1.3l-3.3-9.8
	l-6.5-1.2l-3.3-7.7L670.6,510.4z"/>
<path id="lemud" class="st0" d="M708.2,479.9l37.2,20l9,28.8l-38.1-10.8l-14.7-27.3L708.2,479.9z"/>
<path id="ancerville" class="st0" d="M768.9,485.5l25.5,3.5l6.5,14l-16,18.3v8.5l-12.3,4.3l-18.3-5.2l-9-28.8L768.9,485.5z"/>
<path id="bazoncourt" class="st0" d="M725.9,451l9.3-4.8l3-25.5h28l22.8,17.8l-18.5,21l-1.5,26L745.5,500l-37.2-20L725.9,451z"/>
<path id="sanry-sur-nied" class="st0" d="M693.9,433l4.5-10.3l24.5,2.5l-2.8,18.3l5.8,7.5l-24.3,39.8l-14.2,5.8l-10-26.4l-8.3-29.5
	L693.9,433z"/>
<path id="courcelles-sur-nied" class="st0" d="M640.4,445l28.8-4.3l8.3,29.5l-35,22.3l-9-7.1L640.4,445z"/>
<path id="mécleuves" class="st0" d="M609.1,430.2l15.3,11.3l9-5l7,8.5l-7,40.5l9,7.1l10.6,23.3l-39.8,1.3L592.8,492l-5.8-35.7
	L609.1,430.2z"/>
<path id="orny" class="st0" d="M558.1,489.9l34.7,2.7l20.3,24.5l-11,22l-41.2-7.7l-3.8-13.8L558.1,489.9z"/>
<path id="chesny" class="st0" d="M575.8,454.7l11.1,1.5l5.9,36.3l-34.7-2.7l-8.7-17.3L575.8,454.7z"/>
<path id="pouilly" class="st0" d="M488.6,453l30.5,1.8l24.3,5.5l6,12.3l-55,17.3l-6.8-11.7L488.6,453z"/>
<path id="peltre" class="st0" d="M532.9,412.5l4.3,7.8l5-12l5.6,9.6l18.6-0.8l7.4,7.9l-5.3,10l7.3,19.8l-26.3,17.8l-6-12.3
	l-24.3-5.5L532.9,412.5z"/>
<path id="ars-laquenexy" class="st0" d="M575.4,396l11.5-5.3l40.5-4.6l9.5,15.4l-9.5,5l-6.8,10.5l12.8,19.5l-9,5l-15.3-11.3
	l-13.3-9.5l-22.1,4.2l-7.4-7.9L575.4,396z"/>
<path id="laquenexy" class="st0" d="M627.4,406.5l9.5-5l16.8,6.8l13.5-7.8l29.3,5l2,17.3l-4.5,10.3l-24.8,7.8l-28.8,4.3l-7-8.5
	l-12.8-19.5L627.4,406.5z"/>
<path id="marsilly" class="st0" d="M636.9,376l30.8,1.8l-0.5,22.8l-13.5,7.8l-16.8-6.8l-9.5-15.4L636.9,376z"/>
<path id="colligny" class="st0" d="M667.6,377.7l9.8-12.5l10.9,14.3l18.9-12.5l6.5,9l-17.3,29.5l-29.3-5L667.6,377.7z"/>
<path id="pange" class="st0" d="M713.6,376h25l6.8,8.3l-3.3,13l-13.6,6.3l-5.6,21.8l-24.5-2.5l-2-17.3L713.6,376z"/>
<path id="servigny-lès-ravilles" class="st0" d="M770.3,401.7h13.3l11.5-22.3l24.8,8.8l56.5,34.5l4.8,11.8l-3.5,10.5l-17-12.5
	l-17,13.8l-54.8-7.8l-22.8-17.8L770.3,401.7z"/>
<path id="courcelles-chaussy" class="st0" d="M713.6,354.5l28.5-12.8l-1.8-21.8l13.8-19.7l9.5,4.8l14.2,2.4l3-7.2l7.3-3.7l1.8,11.3
	l10.3,1.3l2.5,7.6h-8.8l1,8.5l-11,18l15,20l-3.8,16.3l-48-14.8l-8.5,11.3h-25l-6.5-9L713.6,354.5z"/>
<path id="silly-sur-nied" class="st0" d="M707.1,328l33.3-8.1l1.8,21.8l-28.5,12.8l-17.8-8.8L707.1,328z"/>
<path id="maizery" class="st0" d="M695.9,345.7l17.8,8.8l-6.5,12.5l-18.9,12.5l-10.9-14.3v-14.8L695.9,345.7z"/>
<path id="les_étangs" class="st0" d="M705.9,263.2l33.5,10v8.5l14.8,3.8v14.7l-13.8,19.7l-33.3,8.1l-2.3-9.9l16.5-12.6l0.5-21
	l-19-6.3L705.9,263.2z"/>
<path id="glatiny" class="st0" d="M702.9,278.1l19,6.3l-0.5,21L704.9,318l-24,7.1l-9.3-32.1C671.6,293.1,700.7,280.1,702.9,278.1z"
	/>
<path id="coincy" class="st0" d="M586.9,337.7l5.9,15.8l44.1,7.5v15l-9.5,10.1l-40.5,4.6l-8.9-23.8l-6.4-23.8L586.9,337.7z"/>
<path id="retonfey" class="st0" d="M623.1,311l-4.3-12.5l7.3-3.5l45.5-1.9l9.3,32.1l24-7.1l2.3,9.9l-11.3,17.8l-18.5,4.8l-15-5.9
	l-3.8-10.9l-14.8-5.5l-15.1,11l-15.4-11L623.1,311z"/>
<path id="noisseville" class="st0" d="M589.9,318.2l9.5-10.3l19.4-9.4l4.3,12.5l-9.8,17.3l-26.5,9.5L589.9,318.2z"/>
<path id="nouilly" class="st0" d="M575.6,307.9l9-11.3l14.8,11.3l-9.5,10.3l-3,19.5l-15.3,5.5l-3-11L575.6,307.9z"/>
<path id="vantoux" class="st0" d="M544.1,300.2h24.5v7.7l-13.3,7.6l13.3,16.8l3,11l-11,2.8L540,318.5l-10.8-2L544.1,300.2z"/>
<path id="servigny-lès-sainte-barbe" class="st0" d="M604.9,279.9l14.8-5.4l6.5,20.5l-7.3,3.5l-19.4,9.4l-14.8-11.3L604.9,279.9z"
	/>
<path id="failly" class="st0" d="M602.9,244l28.5,2l4,14l-15.8,14.5l-14.8,5.4l-20.3,16.7l-7.4-33.4L602.9,244z"/>
<path id="vany" class="st0" d="M555.4,270.5l21.7-7.3l7.5,33.3l-9.3,11.3h-6.7v-7.6h-24.5l-4.5-7.1L555.4,270.5z"/>
<path id="chieulles" class="st0" d="M521.1,270.5l22-7.3l12.3,7.3l-15.8,22.6l-22.2-2.9L521.1,270.5z"/>
<path id="la_maxe" class="st0" d="M494.9,240.7l17.5-4.5l7.3,11.5l1.5,22.8l-3.7,19.8l-6,13l-26.3-6.7l-1.8-45.6L494.9,240.7z"/>
<path id="malroy" class="st0" d="M542.9,220.2l0.3,43l-22,7.3l-1.5-22.8l-7.3-11.5L542.9,220.2z"/>
<path id="sanry-lès-vigy" class="st0" d="M598.1,202.5l42,18.5l-8.8,25l-28.5-2l0.3-13.8l-25.8-12.3L598.1,202.5z"/>
<path id="charly-ouradour" class="st0" d="M577.4,218l25.7,12.2l-0.3,13.8l-25.7,19.2l-21.8,7.3l-12.2-7.3l-0.3-43L577.4,218z"/>
<path id="lessy" class="st1" d="M422.1,263.1l29.5-10.8l-1.6-34.4l26.9-2.2l8.1,5.7l10,19.3L483.5,251l1.6,45.5l-49,11.3l-9.5-15.9l1.5-8.3
	l-11-15.7L422.1,263.1z"/>
<path id="antilly" class="st1" d="M601.3,189.6l-3.1,12.8l-20.7,15.5l-34.5,2.3l-2.8-32.9l23.8,7.3l12-15.4L601.3,189.6z"/>
<path id="mey" class="st1" d="M575.6,307.9l-7,24.3l-13.3-16.8l13.3-7.5H575.6z"/>
<path id="ogy__x2F__montoy-flanville" class="st1" d="M677.3,350.6v14.8l-9.8,12.4l-30.8-1.8l0.1-14.9l-44.1-7.5l-5.9-15.8l26.5-9.5
	l15.4,11l15.1-11l14.8,5.5l3.8,10.9L677.3,350.6z"/>
<path id="jury" class="st1" d="M609.1,430.2L587,456.3l-11.2-1.6l-7.3-19.7l5.2-10.1l22.1-4.2L609.1,430.2z"/>
<path id="fleury" class="st1" d="M558.1,489.8l-1,27.8l-33,11.6l-26.5-4.3l-3.2-35l55.1-17.3L558.1,489.8z"/>
<path id="ancy-sur-moselle" class="st1" d="M362.4,454.6l-8.3,30.5l-9,1.5l-32.7-6.2l-14.8-28.8l-2.6-23.3l9-11.5l20.3,24.5
	l14.3-1.5L362.4,454.6z"/>
<path id="jussy" class="st1" d="M404.1,399.6l-6.8,10.7L379.2,398h-24l-24.5-12.3l-8.3-5.1l-0.2-16.6l38.5,23l14.5-6.3l12.3,5.1
	L404.1,399.6z"/>
<path id="lorry-lès-metz" class="st1" d="M436.4,308l-4,7.3l-32.3,7.3h-12.3l-13.5-7.2l-33.1-31.7l3-7.3l36.7,22.5l46-6.8
	L436.4,308z"/>
<path id="châtel-saint-germain" class="st3" d="M299,305.9l8.8-4l10.3,6l8.8-6l20.3,7.3l13-7.3l14,13.3l17.4,43.8l-8.4,5.5
	l-43.2-7.3l-22-29l-20.3-7L299,305.9z"/>
<path id="scy-chazelles" class="st3" d="M405.9,342.2l17.5,4.3l4.1,3.7l-2.6,13.5l22.3,6.2l-0.7,4.9l-16.7,5.8L391.6,359
	L405.9,342.2z"/>
<path id="longeville-les-metz" class="st3" d="M427.8,350.5h22.3l20,5.7l-5.1,16.1l-17.7-2.4l-22.3-6.2L427.8,350.5z"/>
<path id="semecourt" class="st3" d="M428.3,190.3l17.5,6.2l4.2,21.4h-20.8l-19.3-15.8L428.3,190.3z"/>
<path id="lessy" class="st3" d="M387.8,322.6h12.3l5.9,19.6L391.6,359l-17.4-43.6L387.8,322.6z"/>
<path id="ban-saint-martin" class="st3" d="M456.9,335.9l-6.8,14.6h-22.3l-4.4-4l7.9-15.3L456.9,335.9z"/>
<path id="sainte-ruffine" class="st3" d="M383.3,364.6l9,13.8l-4.8,7.4l-12.3-5.1L383.3,364.6z"/>
<path id="plappeville" class="st3" d="M432.7,315.2l-1.4,16l-7.9,15.3l-17.9-4.3l-5.4-19.6L432.7,315.2z"/>
</svg>
