<?xml version="1.0" encoding="utf-8"?>
<!-- Generator: Adobe Illustrator 19.1.1, SVG Export Plug-In . SVG Version: 6.00 Build 0)  -->
<svg version="1.1" id="Calque_1" xmlns="http://www.w3.org/2000/svg" xmlns:xlink="http://www.w3.org/1999/xlink" x="0px" y="0px"
	 viewBox="104 96.9 803 661.5" style="enable-background:new 104 96.9 803 661.5;" xml:space="preserve">
<style type="text/css">
	.st0{fill:none;stroke:#000000;stroke-miterlimit:10;}
	.st1{fill:none;stroke:#CC2F2F;stroke-miterlimit:10;}
	.st2{fill:#3F3F3F;}
	.st3{fill:none;stroke:#0DDB07;stroke-miterlimit:10;}
</style>
<path id="gorze" class="st0" d="M222.6,461.7l49.5-18.8l2.8-14.8l20.3,0.3l2.5,23.3L282.9,466l16.8,27l-14.8,38l-9.3,2.3l-17.3-10.5
	h-9.2l-4.3,5.3l-10.3-17.3l-9.8,2l-15.6-32.3L222.6,461.7z"/>
<path id="vaux" class="st0" d="M330.9,386.1l24.3,11.9h24l18.3,12.6l-5.1,8.1l-14-1.8h-51.5L330.9,386.1z"/>
<path id="saulny" class="st0" d="M356.4,249.5l17.8,5l17.8,13.8l25.3-0.3l11,15.8l-1.5,8.3l-46,6.8l-36.9-22.7v-21.3L356.4,249.5z"
	/>
</svg>
