<?xml version="1.0" encoding="utf-8"?>
<!-- Generator: Adobe Illustrator 19.1.1, SVG Export Plug-In . SVG Version: 6.00 Build 0)  -->
<svg version="1.1" id="Calque_1" xmlns="http://www.w3.org/2000/svg" xmlns:xlink="http://www.w3.org/1999/xlink" x="0px" y="0px"
	 viewBox="104 90.4 803 661.5" style="enable-background:new 104 90.4 803 661.5;" xml:space="preserve">
<style type="text/css">
	.st0{fill:none;stroke:#000000;stroke-miterlimit:10;}
	.st1{fill:none;stroke:#CC2F2F;stroke-miterlimit:10;}
	.st2{fill:none;stroke:#0DDB07;stroke-miterlimit:10;}
</style>
<path id="gorze" class="st0" d="M216.1,481.6l49.5-18.8l2.8-14.8l20.3,0.3l2.5,23.3l-14.8,14.3l16.8,27l-14.8,38l-9.3,2.3
	l-17.3-10.5h-9.2l-4.3,5.3L228,530.7l-9.8,2l-15.6-32.3L216.1,481.6z"/>
<path id="vaux" class="st0" d="M324.4,406l24.3,11.9h24l18.3,12.6l-5.1,8.1l-14-1.8h-51.5L324.4,406z"/>
<path id="saulny" class="st0" d="M349.9,269.4l17.8,5l17.8,13.8l25.3-0.3l11,15.8l-1.5,8.3l-46,6.8l-36.9-22.7v-21.3L349.9,269.4z"
	/>
<path id="plesnois" class="st0" d="M409.1,263.9l6.5,19.2l-5,4.8l-25.3,0.3l-17.7-13.8L409.1,263.9z"/>
<path id="fèves" class="st0" d="M337.3,274.6l-14.5-5.5l3.8-22.3h17.3l30.1-18.3l29.4-6.5l19.3,15.8h20.8l0.7,14.7l-18.8,0.3
	l-36.3-10.3l-37.5,15l-1.8,11.5 M349.8,269.1l-12.5,5.5"/>
<path id="norroy-le-veneur" class="st0" d="M351.6,257.9l37.5-15l35.8,10.1l19.3-0.1l0.9,19.5l-29.5,10.7l-6.5-19.3l-41.5,10.6
	l-17.8-5L351.6,257.9z"/>
<path id="argancy" class="st0" d="M505.8,255.8l-17.5,4.5l-9.8-19l29.5-60l32.8-8.8l17.8,7.5l-25,26.9l2.8,32.9L505.8,255.8"/>
<path id="rozerieulles" class="st0" d="M368.7,400.6L368.7,400.6l-14.5,6.3l-38.5-23 M368.7,400.6l8.1-16.1l0,0l-43.2-7.3l-22-29
	l-20.3-7L285,367l30.8,16.8"/>
<path id="moulins-lès-metz" class="st0" d="M385.8,438.3l11.8-18.8l-16.5-13.9l4.8-7.4l-9-13.8l8.3-5.5l38.5,22.1l17.5,28.4
	l-20.5,17 M385.8,438.3l4.5,10l30.3-1.8"/>
<path id="vigy" class="st0" d="M692.1,199.1l-38.5,31.5l-6.5,7.3l-13.5,3l-42-18.5l3.3-12.8l7.5-34.3l13.8-16l41,7.3L692.1,199.1z"
	/>
<path id="vry" class="st0" d="M757.4,242.9l-11.5,6.5l-10.8-11.5l-23.5-10l-19.5,38l-34.8,1.5L647,237.9l6.5-7.3l38.5-31.5
	l28.5-19.5L757.4,242.9z"/>
<path id="novéant-sur-moselle" class="st0" d="M291.1,471.6l14.8,28.8l24.3,27.5l1.5,31.1l17,10.7l3.3,19l-30.3,5l-22.8-9.8
	l-8.5-14.3l-0.3-11.5l-11.8-7.3l14.8-38l-16.8-27L291.1,471.6z"/>
<path id="dornot" class="st0" d="M338.6,506.6l-8.5,21.3l-24.3-27.5L338.6,506.6z"/>
<path id="corny-sur-moselle" class="st0" d="M338.6,506.6l9-1.5l16.8,6l2.8,13.5v11.1l2.3,4.7l6.3,4.4l-3.3,7.3l2.5,20.3l-9.5,17.3
	l-7.3-2l-6.2,1l-3.3-19l-17-10.7l-1.3-31.7L338.6,506.6z"/>
<path id="arry" class="st0" d="M318.6,640.9l8.8,6.3l-5-16l6.3-10.4l-7-27.1l30.3-5l6.2-1l7.3,2l-1,7.5l-4.8,11.5l-1.5,26.3l2.8,19
	l-37,4l-12-15L318.6,640.9z"/>
<path id="vittonville" class="st0" d="M301.1,622.7l-2.8,13.6l-28.3,4.8l-6.8-5.8l-1.5-11.5L301.1,622.7z"/>
<path id="pagny-sur-moselle" class="st0" d="M180.6,607.4l9.8,6l2.3-10l8,4l7.3-10.3h9.3l18.5-10.5l31.3,1l2.8,6l-5.5,7.8l3.3,14.8
	l-8.5-8.8l-7,5.5l10,11l-23.3,0.8v-4.3l-46.3,4.3l-13.5-6.8L180.6,607.4z"/>
<path id="prény" class="st0" d="M130.6,645.6l-5-7.7l5.5-8.6l13.5,8.6l19.8-13.3l5-12.5l-1-5.3l5.8-5.5l6.5,6l-1.8,10.5l13.5,6.8
	l46.3-4.3v4.3l-40.8,21l-2.5,9.3l-10.8,4.2l-5.8-5.3l-8.3,4l-4.1-10.7l-7.3,4.8v7.3l-5.3-4.8l-17.2,12.7l-7-4.3l-9.3,0.3v-9.8
	L130.6,645.6z"/>
<path id="jouy-aux-arches" class="st0" d="M355.9,474.6l5.3-10.5l13.5-8.5l-2.8-18.8l14,1.8l4.5,10l2.1-0.1l-15.6,53.4l-12.5,9.3
	l-16.8-6L355.9,474.6z"/>
<path id="augny" class="st0" d="M376.9,501.9l15.6-53.4l28.1-1.6l10.5,7l2.5,15.8l-6.8,19.3l7.3,13l-4.3,30.3l-6.5,12.7h-12v-12.9
	l-12.7-13l-31.5,5.5l-2.8-13.5L376.9,501.9z"/>
<path id="fey" class="st0" d="M398.6,519.1l12.6,12.8l0.2,12.8l-17.5,24.8l-19,2.8l-2.5-20.3l3.3-7.3l-6.3-4.4l-2.3-4.7v-11.1
	L398.6,519.1z"/>
<path id="coin-lès-cuvry" class="st0" d="M411.4,544.8h12l6.5-12.7l35-7.5l7.8,14.8l-0.3,9.8l-28,4.5l-7,7.8l-37,18.6l-6.5-10.3
	L411.4,544.8z"/>
<path id="marieulles" class="st0" d="M365.4,589.6l9.5-17.3l19-2.8l6.5,10.3l37-18.6l4.8,20.5l-18.8,17.8l-9.5,10.5l-25.8,6
	l-23.8-19L365.4,589.6z"/>
<path id="pournoy-la-chétive" class="st0" d="M444.4,553.6l28-4.5l4.8,8.3l-35,24.5l-4.8-20.5L444.4,553.6z"/>
<path id="coin-sur-seille" class="st0" d="M442.1,581.9l35-24.5l12.1-1l-3.8,23.6l-10.6,6.7L433.2,604l-9.9-4.3L442.1,581.9z"/>
<path id="cuvry" class="st0" d="M434.1,501.9l47-3.8l6.8,11.7l3.2,35l-1.9,11.6l-12.1,1l-4.8-8.3l0.3-9.8l-7.8-14.8l-35,7.5
	L434.1,501.9z"/>
<path id="sillegny" class="st0" d="M423.4,599.6l9.9,4.3l41.6-17.3l2.5,39l-20.8,38.3h-16.8l-3.3-14.4l-7.8-3.8l-15-35.5
	L423.4,599.6z"/>
<path id="cheminot" class="st0" d="M428.9,645.6l7.8,3.8l3.3,14.4h16.6l13.5,48.8l-8,14.3l3,8.8h-19l-16.3-9.5l2.3-14.8l-17-27.6
	l3.8-8.9l-11.3-4.5v-11.3L428.9,645.6z"/>
<path id="louvigny" class="st0" d="M477.4,625.6l36.4,0.7l3.8,23.2l3.5,29.3l7.5,44.6l-7.5,5.8l-18,3.5l-16.5-2.8v-11.3l-9.8,0.3
	l-6.8-6.3l-13.4-48.7L477.4,625.6z"/>
<path id="pommerieux" class="st0" d="M485.4,579.9l21.5,4.8l6.8,22.3v19.2l-36.4-0.7l-2.5-39L485.4,579.9z"/>
<path id="verny" class="st0" d="M491.1,544.8l26.5,4.3l26.5,44.5l-30.3,13.5l-6.8-22.3l-21.5-4.8L491.1,544.8z"/>
<path id="goin" class="st0" d="M544.1,593.6l5.5-3.7l21.2,2l7.8,39.2l-13.8,8.2l-25.2-2.2l-22,12.3l-3.8-23.2l-0.2-19.7L544.1,593.6
	z"/>
<path id="pournoy-la-grasse" class="st0" d="M550.6,537.4l3.8,13.8l-4.8,38.7l-5.5,3.7l-26.5-44.5L550.6,537.4z"/>
<path id="pagny-lès-goins" class="st0" d="M539.6,637.1l25.2,2.2v37.5l-43.7,2l-3.5-29.3L539.6,637.1z"/>
<path id="vigny" class="st0" d="M578.6,631.1l20.7-3l12.8,27.2l-5.7,10l-30,18.5l-11.7-7v-37.5L578.6,631.1z"/>
<path id="liéhon" class="st0" d="M605.4,577.1l7.3,4.2l2.7,9l-13,10.2l4.8,18.8l-8,8.8l-20.7,3l-7.8-39.2L605.4,577.1z"/>
<path id="silly-en-saulnois" class="st0" d="M615.4,590.3l11.2,1.7l0.7,13.7l-20,13.7l-4.8-18.8L615.4,590.3z"/>
<path id="buchy" class="st0" d="M607.3,619.3l20-13.7l13.2,4.2l1.8,14.2l-30.2,31.3l-12.8-27.2L607.3,619.3z"/>
<path id="solgne" class="st0" d="M612.1,655.3l30.2-31.3l8,0.8l14.8,13.3l6-4.2l1.8,16.3l-7.5,12.2l-28.6,15.7l-30.3-12.8
	L612.1,655.3z"/>
<path id="luppy" class="st0" d="M664.3,591.9l8.7,2l11.2-12.8l35.7,9l10.7,64.2L717.4,681h-10.8l-11.2-11.5l-4.2,7.3l-8.3-0.5
	l-9.8-9.3l-3.5,6l-2.2-2.7l-1.8-7.8l7.5-12.2l-1.8-16.3l-6,4.2l-14.8-13.3l-8-0.8l-1.8-14.2L664.3,591.9z"/>
<path id="pontoy" class="st0" d="M606.6,536.9l40.5-1.3v2.1l9.8,10l3.3,7.7l6.5,1.2l3.3,9.8l-2.2,7.3l-17-1.2l-24.2,19.4l-11.2-1.7
	l-2.7-9l-7.3-4.2l-9.8-18.2L606.6,536.9z"/>
<path id="béchy" class="st0" d="M782.4,603.9l5.5,17.8l-17.8,7l3.3,16.5l-6.3,11.5l-36.7-2.3l-10.6-64.3L782.4,603.9z"/>
<path id="rémilly" class="st0" d="M699.1,558.8l10.7-20.8l56.3,15.9v6.3h11.3l1.5,5l-8,6.3l1.3,4.5l15.8-1.8l4.8-9l9.8,1.5l3.3,6.5
	v20l4,18.5l8.3,12.3l-15-0.7l-15-1.7l-5.5-17.8l-62.9-13.7l-35.7-9l-1.5-12.5L699.1,558.8z"/>
<path id="aube" class="st0" d="M664.1,530.3l15.3-1.7l1.5-12.2l14.2-5.8l14.7,27.3l-10.7,20.8l-16.5,9.8l-8.2-3.5l-4.3,1.3l-3.3-9.8
	l-6.5-1.2l-3.3-7.7L664.1,530.3z"/>
<path id="lemud" class="st0" d="M701.7,499.8l37.2,20l9,28.8l-38.1-10.8l-14.7-27.3L701.7,499.8z"/>
<path id="ancerville" class="st0" d="M762.4,505.4l25.5,3.5l6.5,14l-16,18.3v8.5l-12.3,4.3l-18.3-5.2l-9-28.8L762.4,505.4z"/>
<path id="bazoncourt" class="st0" d="M719.4,470.9l9.3-4.8l3-25.5h28l22.8,17.8l-18.5,21l-1.5,26L739,519.9l-37.2-20L719.4,470.9z"
	/>
<path id="sanry-sur-nied" class="st0" d="M687.4,452.9l4.5-10.3l24.5,2.5l-2.8,18.3l5.8,7.5l-24.3,39.8l-14.2,5.8l-10-26.4
	l-8.3-29.5L687.4,452.9z"/>
<path id="courcelles-sur-nied" class="st0" d="M633.9,464.9l28.8-4.3l8.3,29.5l-35,22.3l-9-7.1L633.9,464.9z"/>
<path id="mécleuves" class="st0" d="M602.6,450.1l15.3,11.3l9-5l7,8.5l-7,40.5l9,7.1l10.6,23.3l-39.8,1.3l-20.4-25.2l-5.8-35.7
	L602.6,450.1z"/>
<path id="orny" class="st0" d="M551.6,509.8l34.7,2.7l20.3,24.5l-11,22l-41.2-7.7l-3.8-13.8L551.6,509.8z"/>
<path id="chesny" class="st0" d="M569.3,474.6l11.1,1.5l5.9,36.3l-34.7-2.7l-8.7-17.3L569.3,474.6z"/>
<path id="pouilly" class="st0" d="M482.1,472.9l30.5,1.8l24.3,5.5l6,12.3l-55,17.3l-6.8-11.7L482.1,472.9z"/>
<path id="peltre" class="st0" d="M526.4,432.4l4.3,7.8l5-12l5.6,9.6l18.6-0.8l7.4,7.9l-5.3,10l7.3,19.8L543,492.5l-6-12.3l-24.3-5.5
	L526.4,432.4z"/>
<path id="ars-laquenexy" class="st0" d="M568.9,415.9l11.5-5.3l40.5-4.6l9.5,15.4l-9.5,5l-6.8,10.5l12.8,19.5l-9,5l-15.3-11.3
	l-13.3-9.5l-22.1,4.2l-7.4-7.9L568.9,415.9z"/>
<path id="laquenexy" class="st0" d="M620.9,426.4l9.5-5l16.8,6.8l13.5-7.8l29.3,5l2,17.3l-4.5,10.3l-24.8,7.8l-28.8,4.3l-7-8.5
	l-12.8-19.5L620.9,426.4z"/>
<path id="marsilly" class="st0" d="M630.4,395.9l30.8,1.8l-0.5,22.8l-13.5,7.8l-16.8-6.8l-9.5-15.4L630.4,395.9z"/>
<path id="colligny" class="st0" d="M661.1,397.6l9.8-12.5l10.9,14.3l18.9-12.5l6.5,9l-17.3,29.5l-29.3-5L661.1,397.6z"/>
<path id="pange" class="st0" d="M707.1,395.9h25l6.8,8.3l-3.3,13l-13.6,6.3l-5.6,21.8l-24.5-2.5l-2-17.3L707.1,395.9z"/>
<path id="servigny-lès-ravilles" class="st0" d="M763.8,421.6h13.3l11.5-22.3l24.8,8.8l56.5,34.5l4.8,11.8l-3.5,10.5l-17-12.5
	l-17,13.8l-54.8-7.8l-22.8-17.8L763.8,421.6z"/>
<path id="courcelles-chaussy" class="st0" d="M707.1,374.4l28.5-12.8l-1.8-21.8l13.8-19.7l9.5,4.8l14.2,2.4l3-7.2l7.3-3.7l1.8,11.3
	l10.3,1.3l2.5,7.6h-8.8l1,8.5l-11,18l15,20l-3.8,16.3l-48-14.8l-8.5,11.3h-25l-6.5-9L707.1,374.4z"/>
<path id="silly-sur-nied" class="st0" d="M700.6,347.9l33.3-8.1l1.8,21.8l-28.5,12.8l-17.8-8.8L700.6,347.9z"/>
<path id="maizery" class="st0" d="M689.4,365.6l17.8,8.8l-6.5,12.5l-18.9,12.5l-10.9-14.3v-14.8L689.4,365.6z"/>
<path id="les_étangs" class="st0" d="M699.4,283.1l33.5,10v8.5l14.8,3.8v14.7l-13.8,19.7l-33.3,8.1l-2.3-9.9l16.5-12.6l0.5-21
	l-19-6.3L699.4,283.1z"/>
<path id="glatiny" class="st0" d="M696.4,298l19,6.3l-0.5,21l-16.5,12.6l-24,7.1l-9.3-32.1C665.1,313,694.2,300,696.4,298z"/>
<path id="coincy" class="st0" d="M580.4,357.6l5.9,15.8l44.1,7.5v15l-9.5,10.1l-40.5,4.6l-8.9-23.8l-6.4-23.8L580.4,357.6z"/>
<path id="retonfey" class="st0" d="M616.6,330.9l-4.3-12.5l7.3-3.5l45.5-1.9l9.3,32.1l24-7.1l2.3,9.9l-11.3,17.8l-18.5,4.8l-15-5.9
	l-3.8-10.9l-14.8-5.5l-15.1,11l-15.4-11L616.6,330.9z"/>
<path id="noisseville" class="st0" d="M583.4,338.1l9.5-10.3l19.4-9.4l4.3,12.5l-9.8,17.3l-26.5,9.5L583.4,338.1z"/>
<path id="nouilly" class="st0" d="M569.1,327.8l9-11.3l14.8,11.3l-9.5,10.3l-3,19.5l-15.3,5.5l-3-11L569.1,327.8z"/>
<path id="vantoux" class="st0" d="M537.6,320.1h24.5v7.7l-13.3,7.6l13.3,16.8l3,11l-11,2.8l-20.6-27.6l-10.8-2L537.6,320.1z"/>
<path id="servigny-lès-sainte-barbe" class="st0" d="M598.4,299.8l14.8-5.4l6.5,20.5l-7.3,3.5l-19.4,9.4l-14.8-11.3L598.4,299.8z"
	/>
<path id="failly" class="st0" d="M596.4,263.9l28.5,2l4,14l-15.8,14.5l-14.8,5.4L578,316.5l-7.4-33.4L596.4,263.9z"/>
<path id="vany" class="st0" d="M548.9,290.4l21.7-7.3l7.5,33.3l-9.3,11.3h-6.7v-7.6h-24.5l-4.5-7.1L548.9,290.4z"/>
<path id="chieulles" class="st0" d="M514.6,290.4l22-7.3l12.3,7.3L533.1,313l-22.2-2.9L514.6,290.4z"/>
<path id="la_maxe" class="st0" d="M488.4,260.6l17.5-4.5l7.3,11.5l1.5,22.8l-3.7,19.8l-6,13l-26.3-6.7l-1.8-45.6L488.4,260.6z"/>
<path id="malroy" class="st0" d="M536.4,240.1l0.3,43l-22,7.3l-1.5-22.8l-7.3-11.5L536.4,240.1z"/>
<path id="sanry-lès-vigy" class="st0" d="M591.6,222.4l42,18.5l-8.8,25l-28.5-2l0.3-13.8l-25.8-12.3L591.6,222.4z"/>
<path id="charly-ouradour" class="st0" d="M570.9,237.9l25.7,12.2l-0.3,13.8l-25.7,19.2l-21.8,7.3l-12.2-7.3l-0.3-43L570.9,237.9z"
	/>
<path id="antilly" class="st1" d="M594.8,209.5l-3.1,12.8L571,237.8l-34.5,2.3l-2.8-32.9l23.8,7.3l12-15.4L594.8,209.5z"/>
<path id="mey" class="st1" d="M569.1,327.8l-7,24.3l-13.3-16.8l13.3-7.5H569.1z"/>
<path id="ogy_et_montoy-flanville" class="st1" d="M670.8,370.5v14.8l-9.8,12.4l-30.8-1.8l0.1-14.9l-44.1-7.5l-5.9-15.8
	l26.5-9.5l15.4,11l15.1-11l14.8,5.5l3.8,10.9L670.8,370.5z"/>
<path id="jury" class="st1" d="M602.6,450.1l-22.1,26.1l-11.2-1.6l-7.3-19.7l5.2-10.1l22.1-4.2L602.6,450.1z"/>
<path id="fleury" class="st1" d="M551.6,509.7l-1,27.8l-33,11.6l-26.5-4.3l-3.2-35l55.1-17.3L551.6,509.7z"/>
<path id="ancy-sur-moselle" class="st1" d="M355.9,474.5l-8.3,30.5l-9,1.5l-32.7-6.2l-14.8-28.8l-2.6-23.3l9-11.5l20.3,24.5
	l14.3-1.5L355.9,474.5z"/>
<path id="jussy" class="st1" d="M397.6,419.5l-6.8,10.7l-18.1-12.3h-24l-24.5-12.3l-8.3-5.1l-0.2-16.6l38.5,23l14.5-6.3l12.3,5.1
	L397.6,419.5z"/>
<path id="lorry-lès-metz" class="st1" d="M429.9,327.9l-4,7.3l-32.3,7.3h-12.3l-13.5-7.2l-33.1-31.7l3-7.3l36.7,22.5l46-6.8
	L429.9,327.9z"/>
<path id="châtel-saint-germain" class="st2" d="M292.5,325.8l8.8-4l10.3,6l8.8-6l20.3,7.3l13-7.3l14,13.3l17.4,43.8l-8.4,5.5
	l-43.2-7.3l-22-29l-20.3-7L292.5,325.8z"/>
<path id="scy-chazelles" class="st2" d="M399.4,362.1l17.5,4.3l4.1,3.7l-2.6,13.5l22.3,6.2l-0.7,4.9l-16.7,5.8l-38.2-21.6
	L399.4,362.1z"/>
<path id="longeville-les-metz" class="st2" d="M421.3,370.4h22.3l20,5.7l-5.1,16.1l-17.7-2.4l-22.3-6.2L421.3,370.4z"/>
<path id="semecourt" class="st2" d="M421.8,210.2l17.5,6.2l4.2,21.4h-20.8L403.4,222L421.8,210.2z"/>
<path id="lessy" class="st2" d="M381.3,342.5h12.3l5.9,19.6l-14.4,16.8l-17.4-43.6L381.3,342.5z"/>
<path id="ban-saint-martin" class="st2" d="M450.4,355.8l-6.8,14.6h-22.3l-4.4-4l7.9-15.3L450.4,355.8z"/>
<path id="sainte-ruffine" class="st2" d="M376.8,384.5l9,13.8l-4.8,7.4l-12.3-5.1L376.8,384.5z"/>
<path id="plappeville" class="st2" d="M426.2,335.1l-1.4,16l-7.9,15.3l-17.9-4.3l-5.4-19.6L426.2,335.1z"/>
</svg>
