<?xml version="1.0" encoding="utf-8"?>
<!-- Generator: Adobe Illustrator 19.1.1, SVG Export Plug-In . SVG Version: 6.00 Build 0)  -->
<svg version="1.1" id="Calque_1" xmlns="http://www.w3.org/2000/svg" xmlns:xlink="http://www.w3.org/1999/xlink" x="0px" y="0px"
	 viewBox="104 61.9 803 718" style="enable-background:new 104 61.9 803 718;" xml:space="preserve">
<style type="text/css">
	.st0{fill:none;stroke:#000000;stroke-miterlimit:10;}
</style>
<path id="ban-saint-martin" class="st0" d="M609.2,340.6l15.4,11l15.1-11l14.8,5.5l3.8,10.9 M609.2,340.6l-26.5,9.5 M582.7,350.1
	l5.9,15.8l44.1,7.5 M658.2,357l15,5.9 M632.7,373.4v15 M663.4,390.1l9.8-12.5 M673.2,362.9v14.8 M663.4,390.1l-30.8-1.8"/>
<path id="longeville-les-metz" class="st0" d="M218.5,474.4l49.5-18.8l2.8-14.8l20.3,0.3l2.5,23.3l-14.8,14.3l16.8,27l-14.8,38
	l-9.3,2.3l-17.3-10.5H245l-4.3,5.3l-10.3-17.3l-9.8,2L205,493.2L218.5,474.4z"/>
<path id="lessy" class="st0" d="M318.4,393.4l-0.3-16.8l38.5,23l14.5-6.3l12.3,5.1l16.3,13.7l-6.5,10.8l-18.3-12.6h-24l-24.3-11.9
	 M326.7,398.5l-8.3-5.1"/>
<path id="ban-saint-martin" class="st0" d="M326.8,398.8l24.3,11.9h24l18.3,12.6l-5.1,8.1l-14-1.8h-51.5L326.8,398.8z"/>
<path id="ban-saint-martin" class="st0" d="M352.3,262.2l17.8,5l17.8,13.8l25.3-0.3l11,15.8l-1.5,8.3l-46,6.8l-36.9-22.7v-21.3
	L352.3,262.2z"/>
<path id="ban-saint-martin" class="st0" d="M411.5,256.7l6.5,19.2l-5,4.8l-25.3,0.3L370,267.2L411.5,256.7z"/>
<path id="ban-saint-martin" class="st0" d="M339.7,267.4l-14.5-5.5l3.8-22.3h17.3l30.1-18.3l29.4-6.5l19.3,15.8h20.8l0.7,14.7
	l-18.8,0.3l-36.3-10.3l-37.5,15l-1.8,11.5 M352.2,261.9l-12.5,5.5"/>
<path id="ban-saint-martin" class="st0" d="M354,250.7l37.5-15l35.8,10.1l19.3-0.1l0.9,19.5L418,275.9l-6.5-19.3L370,267.2
	l-17.8-5L354,250.7z"/>
<path id="ban-saint-martin" class="st0" d="M423.5,362.9h22.3l20,5.7l-5.1,16.1l-17.3-2.1l-22.5-6.2L423.5,362.9z"/>
<path id="ban-saint-martin" class="st0" d="M369.9,328.1l-14-13.3 M369.9,328.1l13.5,6.8h12.3 M395.7,334.9l32.3-7.3l4-7.3
	l-9.5-15.9l-46,6.8l-36.7-22.5l-3,7.3l19.3,19"/>
<path id="ban-saint-martin" class="st0" d="M445.7,230.8l26.9-2.5l8.3,6l9.8,19l-11.5,10.3l1.8,45.6 M412.8,280.6L412.8,280.6 M412.8,280.5L412.8,280.5
	 M412.8,280.5l11,15.7l-1.5,8.3l9.5,15.9l49-11.3 M412.8,280.5l5-4.8l29.5-10.8l-1.7-34.3"/>
<path id="ban-saint-martin" class="st0" d="M508.2,248.6l-17.5,4.5l-9.8-19l29.5-60l32.8-8.8l17.8,7.5l-25,26.9l2.8,32.9L508.2,248.6"/>
<path id="ban-saint-martin" class="st0" d="M443.4,382.3l-22.5-6.2l2.5-13.5 M419.4,359.9l4,2.8 M425.9,394l16.7-5.8l0.8-5.8
	 M419.4,359.9l-17.5-4.3l-14.3,16.8l38.3,21.6"/>
<path id="ban-saint-martin" class="st0" d="M293.7,334.1l1.3-15.3l8.8-4l10.3,6l8.8-6l20.3,7.3l13-7.3l14,13.3l15.8,45.4
	 M293.7,334.1l20.3,7l22,29l43.2,7.3 M385.8,373.5l-6.6,3.9"/>
<path id="ban-saint-martin" class="st0" d="M383.4,398.5l-12.3-5.1l-14.5,6.3l-38.5-23 M383.4,398.5l4.8-7.4l-9-13.8L336,370
	l-22-29l-20.3-7l-6.3,25.8l30.8,16.8"/>
<path id="ban-saint-martin" class="st0" d="M349.9,497.6l-9,1.5 M308.2,492.9l-14.8-28.8 M340.9,499.1l-32.8-6.3 M349.9,497.6
	l8.3-30.5l-23.8-14.8l-14.3,1.5l-20.3-24.5l-9,11.5l2.5,23.3"/>
<path id="ban-saint-martin" class="st0" d="M290.9,440.9l9-11.5l20.3,24.5l14.3-1.5l23.8,14.8 M270.7,440.6l20.3,0.3
	 M358.2,467.1l5.2-10.5l13.5-8.5l-2.8-18.8h-51.5l4-30.9l-8.3-5.1l-7,8.8l-32.8,5l-8,33.5"/>
<path id="ban-saint-martin" class="st0" d="M388.2,431.1l11.8-18.8l-16.5-13.9l4.8-7.4l-9-13.8l8.5-5l38.3,21.6l17.5,28.4
	l-20.5,17 M388.2,431.1l4.5,10l30.3-1.8"/>
<path id="ban-saint-martin" class="st0" d="M701.8,275.9c0,0-2.8,13.5-3,14.9s-31.3,14.9-31.3,14.9l-45.5,1.9l-6.5-20.5
	l15.8-14.5l-4-14l8.8-25l13.5-3l10.3,29.5l34.8-1.5L701.8,275.9z"/>
<path id="ban-saint-martin" class="st0" d="M694.5,191.9L656,223.4l-6.5,7.3l-13.5,3l-42-18.5l3.3-12.8l7.5-34.3l13.8-16l41,7.3
	L694.5,191.9z"/>
<path id="ban-saint-martin" class="st0" d="M759.8,235.7l-11.5,6.5l-10.8-11.5l-23.5-10l-19.5,38l-34.8,1.5l-10.3-29.5l6.5-7.3
	l38.5-31.5l28.5-19.5L759.8,235.7z"/>
<path id="ban-saint-martin" class="st0" d="M535.9,199.8l23.8,7.3l12-15.4l25.5,10.5 M593.9,214.9l-20.8,15.5 M573.2,230.4
	l-34.5,2.3 M535.9,199.8l2.8,32.9 M597.2,202.1l-3.3,12.8"/>
<path id="ban-saint-martin" class="st0" d="M293.5,464.4l14.8,28.8l24.3,27.5l1.5,31.1l17,10.7l3.3,19l-30.3,5l-22.8-9.8
	l-8.5-14.3l-0.3-11.5l-11.8-7.3l14.8-38l-16.8-27L293.5,464.4z"/>
<path id="ban-saint-martin" class="st0" d="M341,499.4l-8.5,21.3l-24.3-27.5L341,499.4z"/>
<path id="ban-saint-martin" class="st0" d="M341,499.4l9-1.5l16.8,6l2.8,13.5v11.1l2.3,4.7l6.3,4.4l-3.3,7.3l2.5,20.3l-9.5,17.3
	l-7.3-2l-6.2,1l-3.3-19l-17-10.7l-1.3-31.7L341,499.4z"/>
<path id="ban-saint-martin" class="st0" d="M321,633.7l8.8,6.3l-5-16l6.3-10.4l-7-27.1l30.3-5l6.2-1l7.3,2l-1,7.5l-4.8,11.5
	l-1.5,26.3l2.8,19l-37,4l-12-15L321,633.7z"/>
<path id="ban-saint-martin" class="st0" d="M303.5,615.5l-2.8,13.6l-28.3,4.8l-6.8-5.8l-1.5-11.5L303.5,615.5z"/>
<path id="ban-saint-martin" class="st0" d="M183,600.2l9.8,6l2.3-10l8,4l7.3-10.3h9.3l18.5-10.5l31.3,1l2.8,6l-5.5,7.8l3.3,14.8
	l-8.5-8.8l-7,5.5l10,11l-23.3,0.8v-4.3l-46.3,4.3l-13.5-6.8L183,600.2z"/>
<path id="ban-saint-martin" class="st0" d="M133,638.4l-5-7.7l5.5-8.6l13.5,8.6l19.8-13.3l5-12.5l-1-5.3l5.8-5.5l6.5,6
	l-1.8,10.5l13.5,6.8l46.3-4.3v4.3l-40.8,21l-2.5,9.3l-10.8,4.2l-5.8-5.3l-8.3,4l-4.1-10.7l-7.3,4.8v7.3l-5.3-4.8L139,659.9l-7-4.3
	l-9.3,0.3v-9.8L133,638.4z"/>
<path id="ban-saint-martin" class="st0" d="M358.3,467.4l5.3-10.5l13.5-8.5l-2.8-18.8l14,1.8l4.5,10l2.1-0.1l-15.6,53.4
	l-12.5,9.3l-16.8-6L358.3,467.4z"/>
<path id="ban-saint-martin" class="st0" d="M379.3,494.7l15.6-53.4l28.1-1.6l10.5,7l2.5,15.8l-6.8,19.3l7.3,13l-4.3,30.3
	l-6.5,12.7h-12v-12.9l-12.7-13l-31.5,5.5l-2.8-13.5L379.3,494.7z"/>
<path id="ban-saint-martin" class="st0" d="M401,511.9l12.6,12.8l0.2,12.8l-17.5,24.8l-19,2.8l-2.5-20.3l3.3-7.3l-6.3-4.4
	l-2.3-4.7v-11.1L401,511.9z"/>
<path id="ban-saint-martin" class="st0" d="M413.8,537.6h12l6.5-12.7l35-7.5l7.8,14.8l-0.3,9.8l-28,4.5l-7,7.8l-37,18.6
	l-6.5-10.3L413.8,537.6z"/>
<path id="ban-saint-martin" class="st0" d="M367.8,582.4l9.5-17.3l19-2.8l6.5,10.3l37-18.6l4.8,20.5l-18.8,17.8l-9.5,10.5
	l-25.8,6l-23.8-19L367.8,582.4z"/>
<path id="ban-saint-martin" class="st0" d="M446.8,546.4l28-4.5l4.8,8.3l-35,24.5l-4.8-20.5L446.8,546.4z"/>
<path id="ban-saint-martin" class="st0" d="M362.2,601l4.6-11.1l23.8,19l25.8-6l15,35.5L410,651.8v11.3l-33.3,8.4l-16.3-11.4
	l2.8-13.5l-2.8-19L362.2,601z"/>
<path id="ban-saint-martin" class="st0" d="M444.5,574.7l35-24.5l12.1-1l-3.8,23.6l-10.6,6.7l-41.6,17.3l-9.9-4.3L444.5,574.7z"
	/>
<path id="ban-saint-martin" class="st0" d="M436.5,494.7l47-3.8l6.8,11.7l3.2,35l-1.9,11.6l-12.1,1l-4.8-8.3l0.3-9.8l-7.8-14.8
	l-35,7.5L436.5,494.7z"/>
<path id="ban-saint-martin" class="st0" d="M425.8,592.4l9.9,4.3l41.6-17.3l2.5,39L459,656.7h-16.8l-3.3-14.4l-7.8-3.8l-15-35.5
	L425.8,592.4z"/>
<path id="ban-saint-martin" class="st0" d="M431.3,638.4l7.8,3.8l3.3,14.4H459l13.5,48.8l-8,14.3l3,8.8h-19l-16.3-9.5l2.3-14.8
	l-17-27.6l3.8-8.9l-11.3-4.5v-11.3L431.3,638.4z"/>
<path id="ban-saint-martin" class="st0" d="M479.8,618.4l36.4,0.7l3.8,23.2l3.5,29.3l7.5,44.6l-7.5,5.8l-18,3.5l-16.5-2.8v-11.3
	l-9.8,0.3l-6.8-6.3L459,656.7L479.8,618.4z"/>
<path id="ban-saint-martin" class="st0" d="M487.8,572.7l21.5,4.8l6.8,22.3V619l-36.4-0.7l-2.5-39L487.8,572.7z"/>
<path id="ban-saint-martin" class="st0" d="M493.5,537.6l26.5,4.3l26.5,44.5l-30.3,13.5l-6.8-22.3l-21.5-4.8L493.5,537.6z"/>
<path id="ban-saint-martin" class="st0" d="M546.5,586.4l5.5-3.7l21.2,2l7.8,39.2l-13.8,8.2l-25.2-2.2l-22,12.3l-3.8-23.2
	l-0.2-19.7L546.5,586.4z"/>
<path id="ban-saint-martin" class="st0" d="M553,530.2l3.8,13.8l-4.8,38.7l-5.5,3.7L520,541.9L553,530.2z"/>
<path id="ban-saint-martin" class="st0" d="M556.8,544.1l41.2,7.7l9.8,18.2l-34.7,14.8l-21.2-2L556.8,544.1z"/>
<path id="ban-saint-martin" class="st0" d="M542,629.9l25.2,2.2v37.5l-43.7,2l-3.5-29.3L542,629.9z"/>
<path id="ban-saint-martin" class="st0" d="M581,623.9l20.7-3l12.8,27.2l-5.7,10l-30,18.5l-11.7-7v-37.5L581,623.9z"/>
<path id="ban-saint-martin" class="st0" d="M607.8,569.9l7.3,4.2l2.7,9l-13,10.2l4.8,18.8l-8,8.8l-20.7,3l-7.8-39.2L607.8,569.9
	z"/>
<path id="ban-saint-martin" class="st0" d="M617.8,583.1l11.2,1.7l0.7,13.7l-20,13.7l-4.8-18.8L617.8,583.1z"/>
<path id="ban-saint-martin" class="st0" d="M609.7,612.1l20-13.7l13.2,4.2l1.8,14.2l-30.2,31.3l-12.8-27.2L609.7,612.1z"/>
<path id="ban-saint-martin" class="st0" d="M614.5,648.1l30.2-31.3l8,0.8l14.8,13.3l6-4.2l1.8,16.3l-7.5,12.2l-28.6,15.7
	l-30.3-12.8L614.5,648.1z"/>
<path id="ban-saint-martin" class="st0" d="M666.7,584.7l8.7,2l11.2-12.8l35.7,9l10.7,64.2l-13.2,26.7H709l-11.2-11.5l-4.2,7.3
	l-8.3-0.5l-9.8-9.3l-3.5,6l-2.2-2.7l-1.8-7.8l7.5-12.2l-1.8-16.3l-6,4.2l-14.8-13.3l-8-0.8l-1.8-14.2L666.7,584.7z"/>
<path id="ban-saint-martin" class="st0" d="M629,584.7l24.3-19.3l17,1.2l2.2-7.3l4.3-1.3l8.2,3.5l1.5,12.5l-11.2,12.8l-8.7-2
	l-23.8,17.8l-13.2-4.2L629,584.7z"/>
<path id="ban-saint-martin" class="st0" d="M609,529.7l40.5-1.3v2.1l9.8,10l3.3,7.7l6.5,1.2l3.3,9.8l-2.2,7.3l-17-1.2L629,584.7
	l-11.2-1.7l-2.7-9l-7.3-4.2l-9.8-18.2L609,529.7z"/>
<path id="ban-saint-martin" class="st0" d="M784.8,596.7l5.5,17.8l-17.8,7l3.3,16.5l-6.3,11.5l-36.7-2.3l-10.6-64.3L784.8,596.7
	z"/>
<path id="ban-saint-martin" class="st0" d="M701.5,551.6l10.7-20.8l56.3,15.9v6.3h11.3l1.5,5l-8,6.3l1.3,4.5l15.8-1.8l4.8-9
	l9.8,1.5l3.3,6.5v20l4,18.5l8.3,12.3l-15-0.7l-15-1.7l-5.5-17.8l-62.9-13.7l-35.7-9l-1.5-12.5L701.5,551.6z"/>
<path id="ban-saint-martin" class="st0" d="M666.5,523.1l15.3-1.7l1.5-12.2l14.2-5.8l14.7,27.3l-10.7,20.8l-16.5,9.8l-8.2-3.5
	l-4.3,1.3l-3.3-9.8l-6.5-1.2l-3.3-7.7L666.5,523.1z"/>
<path id="ban-saint-martin" class="st0" d="M673.3,482.9l10.1,26.3l-1.5,12.2l-15.3,1.7l-7.2,17.5l-9.8-10v-2.1l-11.3-23.3
	L673.3,482.9z"/>
<path id="ban-saint-martin" class="st0" d="M704.1,492.6l37.2,20l9,28.8l-38.1-10.8l-14.7-27.3L704.1,492.6z"/>
<path id="ban-saint-martin" class="st0" d="M764.8,498.2l25.5,3.5l6.5,14l-16,18.3v8.5l-12.3,4.3l-18.3-5.2l-9-28.8L764.8,498.2
	z"/>
<path id="ban-saint-martin" class="st0" d="M721.8,463.7l9.3-4.8l3-25.5h28l22.8,17.8l-18.5,21l-1.5,26l-23.5,14.5l-37.2-20
	L721.8,463.7z"/>
<path id="ban-saint-martin" class="st0" d="M689.8,445.7l4.5-10.3l24.5,2.5l-2.8,18.3l5.8,7.5l-24.3,39.8l-14.2,5.8l-10-26.4
	l-8.3-29.5L689.8,445.7z"/>
<path id="ban-saint-martin" class="st0" d="M636.3,457.7l28.8-4.3l8.3,29.5l-35,22.3l-9-7.1L636.3,457.7z"/>
<path id="ban-saint-martin" class="st0" d="M605,442.9l15.3,11.3l9-5l7,8.5l-7,40.5l9,7.1l10.6,23.3l-39.8,1.3l-20.4-25.2
	l-5.8-35.7L605,442.9z"/>
<path id="ban-saint-martin" class="st0" d="M554,502.6l34.7,2.7l20.3,24.5l-11,22l-41.2-7.7l-3.8-13.8L554,502.6z"/>
<path id="ban-saint-martin" class="st0" d="M571.7,467.4l11.1,1.5l5.9,36.3l-34.7-2.7l-8.7-17.3L571.7,467.4z"/>
<path id="ban-saint-martin" class="st0" d="M484.5,465.7l30.5,1.8l24.3,5.5l6,12.3l-55,17.3l-6.8-11.7L484.5,465.7z"/>
<path id="ban-saint-martin" class="st0" d="M528.8,425.2l4.3,7.8l5-12l5.6,9.6l18.6-0.8l7.4,7.9l-5.3,10l7.3,19.8l-26.3,17.8
	l-6-12.3l-24.3-5.5L528.8,425.2z"/>
<path id="ban-saint-martin" class="st0" d="M571.3,408.7l11.5-5.3l40.5-4.6l9.5,15.4l-9.5,5l-6.8,10.5l12.8,19.5l-9,5L605,442.9
	l-13.3-9.5l-22.1,4.2l-7.4-7.9L571.3,408.7z"/>
<path id="ban-saint-martin" class="st0" d="M623.3,419.2l9.5-5l16.8,6.8l13.5-7.8l29.3,5l2,17.3l-4.5,10.3l-24.8,7.8l-28.8,4.3
	l-7-8.5l-12.8-19.5L623.3,419.2z"/>
<path id="ban-saint-martin" class="st0" d="M632.8,388.7l30.8,1.8l-0.5,22.8l-13.5,7.8l-16.8-6.8l-9.5-15.4L632.8,388.7z"/>
<path id="ban-saint-martin" class="st0" d="M663.5,390.4l9.8-12.5l10.9,14.3l18.9-12.5l6.5,9l-17.3,29.5l-29.3-5L663.5,390.4z"
	/>
<path id="ban-saint-martin" class="st0" d="M709.5,388.7h25l6.8,8.3l-3.3,13l-13.6,6.3l-5.6,21.8l-24.5-2.5l-2-17.3L709.5,388.7
	z"/>
<path id="ban-saint-martin" class="st0" d="M718.8,437.9l5.6-21.8l13.6-6.2l3.3-13l-6.8-8.3l8.5-11.3l48,14.8l-11.5,22.3h-13.3
	l-4.2,19h-28l-3,25.5l-9.3,4.8l-5.8-7.5L718.8,437.9z"/>
<path id="ban-saint-martin" class="st0" d="M766.2,414.4h13.3l11.5-22.3l24.8,8.8l56.5,34.5l4.8,11.8l-3.5,10.5l-17-12.5
	l-17,13.8l-54.8-7.8L762,433.4L766.2,414.4z"/>
<path id="ban-saint-martin" class="st0" d="M709.5,367.2l28.5-12.8l-1.8-21.8l13.8-19.7l9.5,4.8l14.2,2.4l3-7.2l7.3-3.7
	l1.8,11.3l10.3,1.3l2.5,7.6h-8.8l1,8.5l-11,18l15,20l-3.8,16.3l-48-14.8l-8.5,11.3h-25l-6.5-9L709.5,367.2z"/>
<path id="ban-saint-martin" class="st0" d="M703,340.7l33.3-8.1l1.8,21.8l-28.5,12.8l-17.8-8.8L703,340.7z"/>
<path id="ban-saint-martin" class="st0" d="M691.8,358.4l17.8,8.8l-6.5,12.5l-18.9,12.5l-10.9-14.3v-14.8L691.8,358.4z"/>
<path id="ban-saint-martin" class="st0" d="M701.8,275.9l33.5,10v8.5l14.8,3.8v14.7l-13.8,19.7l-33.3,8.1l-2.3-9.9l16.5-12.6
	l0.5-21l-19-6.3L701.8,275.9z"/>
<path id="ban-saint-martin" class="st0" d="M698.8,290.8l19,6.3l-0.5,21l-16.5,12.6l-24,7.1l-9.3-32.1
	C667.5,305.8,696.6,292.8,698.8,290.8z"/>
<path id="ban-saint-martin" class="st0" d="M582.8,350.4l5.9,15.8l44.1,7.5v15l-9.5,10.1l-40.5,4.6l-8.9-23.8l-6.4-23.8
	L582.8,350.4z"/>
<path id="ban-saint-martin" class="st0" d="M619,323.7l-4.3-12.5l7.3-3.5l45.5-1.9l9.3,32.1l24-7.1l2.3,9.9l-11.3,17.8
	l-18.5,4.8l-15-5.9l-3.8-10.9l-14.8-5.5l-15.1,11l-15.4-11L619,323.7z"/>
<path id="ban-saint-martin" class="st0" d="M585.8,330.9l9.5-10.3l19.4-9.4l4.3,12.5l-9.8,17.3l-26.5,9.5L585.8,330.9z"/>
<path id="ban-saint-martin" class="st0" d="M571.5,320.6l9-11.3l14.8,11.3l-9.5,10.3l-3,19.5l-15.3,5.5l-3-11L571.5,320.6z"/>
<path id="ban-saint-martin" class="st0" d="M564.5,320.6h7l-7,24.3l-13.3-16.8L564.5,320.6z"/>
<path id="ban-saint-martin" class="st0" d="M540,312.9h24.5v7.7l-13.3,7.6l13.3,16.8l3,11l-11,2.8l-20.6-27.6l-10.8-2L540,312.9
	z"/>
<path id="ban-saint-martin" class="st0" d="M600.8,292.6l14.8-5.4l6.5,20.5l-7.3,3.5l-19.4,9.4l-14.8-11.3L600.8,292.6z"/>
<path id="ban-saint-martin" class="st0" d="M598.8,256.7l28.5,2l4,14l-15.8,14.5l-14.8,5.4l-20.3,16.7l-7.4-33.4L598.8,256.7z"
	/>
<path id="ban-saint-martin" class="st0" d="M551.3,283.2l21.7-7.3l7.5,33.3l-9.3,11.3h-6.7v-7.6H540l-4.5-7.1L551.3,283.2z"/>
<path id="ban-saint-martin" class="st0" d="M517,283.2l22-7.3l12.3,7.3l-15.8,22.6l-22.2-2.9L517,283.2z"/>
<path id="ban-saint-martin" class="st0" d="M490.8,253.4l17.5-4.5l7.3,11.5l1.5,22.8l-3.7,19.8l-6,13l-26.3-6.7l-1.8-45.6
	L490.8,253.4z"/>
<path id="ban-saint-martin" class="st0" d="M538.8,232.9l0.3,43l-22,7.3l-1.5-22.8l-7.3-11.5L538.8,232.9z"/>
<path id="ban-saint-martin" class="st0" d="M594,215.2l42,18.5l-8.8,25l-28.5-2l0.3-13.8l-25.8-12.3L594,215.2z"/>
<path id="ban-saint-martin" class="st0" d="M573.3,230.7l25.7,12.2l-0.3,13.8L573,275.9l-21.8,7.3l-12.2-7.3l-0.3-43
	L573.3,230.7z"/>
</svg>
