<?xml version="1.0" encoding="utf-8"?>
<!-- Generator: Adobe Illustrator 19.1.1, SVG Export Plug-In . SVG Version: 6.00 Build 0)  -->
<svg version="1.1" id="Calque_1" xmlns="http://www.w3.org/2000/svg" xmlns:xlink="http://www.w3.org/1999/xlink" x="0px" y="0px"
	 viewBox="0 0 803 718" style="enable-background:new 0 0 803 718;" xml:space="preserve">
<style type="text/css">
	.st0{fill:none;stroke:#000000;stroke-miterlimit:10;}
</style>

<path class="st0" d="M505.2,278.7l15.4,11l15.1-11l14.8,5.5l3.8,10.9 M505.2,278.7l-26.5,9.5 M478.7,288.2l5.9,15.8l44.1,7.5
	 M554.2,295.1l15,5.9 M528.7,311.5v15 M559.4,328.2l9.8-12.5 M569.2,301v14.8 M559.4,328.2l-30.8-1.8" id="longeville-les-metz"/>
<path class="st0" d="M114.5,412.5l49.5-18.8l2.8-14.8l20.3,0.3l2.5,23.3l-14.8,14.3l16.8,27l-14.8,38l-9.3,2.3l-17.3-10.5H141
	l-4.3,5.3l-10.3-17.3l-9.8,2L101,431.3L114.5,412.5z" id="lessy"/>
<path class="st0" id="ban-saint-martin" d="M214.4,331.5l-0.3-16.8l38.5,23l14.5-6.3l12.3,5.1l16.3,13.7l-6.5,10.8l-18.3-12.6h-24l-24.3-11.9 M222.7,336.6
	l-8.3-5.1"/>
</svg>
