<?xml version="1.0" encoding="utf-8"?>
<!-- Generator: Adobe Illustrator 19.1.1, SVG Export Plug-In . SVG Version: 6.00 Build 0)  -->
<svg version="1.1" id="Calque_1" xmlns="http://www.w3.org/2000/svg" xmlns:xlink="http://www.w3.org/1999/xlink" x="0px" y="0px"
	 viewBox="0 0 803 718" style="enable-background:new 0 0 803 718;" xml:space="preserve">
<style type="text/css">
	.st0{fill:none;stroke:#000000;stroke-miterlimit:10;}
</style>
<path class="st0" id="ban-saint-martin" d="M505.2,278.7l15.4,11l15.1-11l14.8,5.5l3.8,10.9 M505.2,278.7l-26.5,9.5 M478.7,288.2l5.9,15.8l44.1,7.5
	 M554.2,295.1l15,5.9 M528.7,311.5v15 M559.4,328.2l9.8-12.5 M569.2,301v14.8 M559.4,328.2l-30.8-1.8"/>
<path class="st0" id="longeville-les-metz" d="M114.5,412.5l49.5-18.8l2.8-14.8l20.3,0.3l2.5,23.3l-14.8,14.3l16.8,27l-14.8,38l-9.3,2.3l-17.3-10.5H141
	l-4.3,5.3l-10.3-17.3l-9.8,2L101,431.3L114.5,412.5z"/>
<path class="st0" id="lessy" d="M214.4,331.5l-0.3-16.8l38.5,23l14.5-6.3l12.3,5.1l16.3,13.7l-6.5,10.8l-18.3-12.6h-24l-24.3-11.9 M222.7,336.6
	l-8.3-5.1"/>
<path class="st0" id="ban-saint-martin" d="M222.8,336.9l24.3,11.9h24l18.3,12.6l-5.1,8.1l-14-1.8h-51.5L222.8,336.9z"/>
<path class="st0" id="ban-saint-martin" d="M248.3,200.3l17.8,5l17.8,13.8l25.3-0.3l11,15.8l-1.5,8.3l-46,6.8L235.8,227v-21.3L248.3,200.3z"/>
<path class="st0" id="ban-saint-martin" d="M307.5,194.8L314,214l-5,4.8l-25.3,0.3L266,205.3L307.5,194.8z"/>
<path class="st0" id="ban-saint-martin" d="M235.7,205.5l-14.5-5.5l3.8-22.3h17.3l30.1-18.3l29.4-6.5l19.3,15.8h20.8l0.7,14.7l-18.8,0.3l-36.3-10.3
	l-37.5,15l-1.8,11.5 M248.2,200l-12.5,5.5"/>
<path class="st0" id="ban-saint-martin" d="M250,188.8l37.5-15l35.8,10.1l19.3-0.1l0.9,19.5L314,214l-6.5-19.3L266,205.3l-17.8-5L250,188.8z"/>
<path class="st0" id="ban-saint-martin" d="M319.5,301h22.3l20,5.7l-5.1,16.1l-17.3-2.1l-22.5-6.2L319.5,301z"/>
<path class="st0" id="ban-saint-martin" d="M265.9,266.2l-14-13.3 M265.9,266.2l13.5,6.8h12.3 M291.7,273l32.3-7.3l4-7.3l-9.5-15.9l-46,6.8l-36.7-22.5
	l-3,7.3l19.3,19"/>
<path class="st0" id="ban-saint-martin" d="M341.8,168.7l26.9-2.5l8.3,6l9.8,19l-11.5,10.3l1.8,45.6 M313.9,213.7l-5,4.8 M318.4,242.5l1.5-8.3l-11-15.8
	 M313.9,213.7l29.5-10.8l-1.7-34.3 M327.9,258.4l-9.5-15.9 M327.9,258.4l49-11.3"/>
<path class="st0" id="ban-saint-martin" d="M376.9,172.2l29.5-60l32.8-8.8l17.8,7.5l-25,26.9l2.8,32.9l-30.5,16 M376.9,172.2l9.8,19 M404.2,186.7
	l-17.5,4.5"/>
<path class="st0" id="ban-saint-martin" d="M339.4,320.4l-22.5-6.2l2.5-13.5 M315.4,298l4,2.8 M321.9,332.1l16.7-5.8l0.8-5.8 M315.4,298l-17.5-4.3
	l-14.3,16.8l38.3,21.6"/>
<path class="st0" id="ban-saint-martin" d="M189.7,272.2l1.3-15.3l8.8-4l10.3,6l8.8-6l20.3,7.3l13-7.3l14,13.3l15.8,45.4 M189.7,272.2l20.3,7l22,29
	l43.2,7.3 M281.8,311.6l-6.6,3.9"/>
<path class="st0" id="ban-saint-martin" d="M279.4,336.6l-12.3-5.1l-14.5,6.3l-38.5-23 M279.4,336.6l4.8-7.4l-9-13.8l-43.2-7.3l-22-29l-20.3-7l-6.3,25.8
	l30.8,16.8"/>
<path class="st0" id="ban-saint-martin" d="M245.9,435.7l-9,1.5 M204.2,431l-14.8-28.8 M236.9,437.2l-32.8-6.3 M245.9,435.7l8.3-30.5l-23.8-14.8l-14.3,1.5
	l-20.3-24.5l-9,11.5l2.5,23.3"/>
<path class="st0" id="ban-saint-martin" d="M186.9,379l9-11.5l20.3,24.5l14.3-1.5l23.8,14.8 M166.7,378.7l20.3,0.3 M254.2,405.2l5.2-10.5l13.5-8.5
	l-2.8-18.8h-51.5l4-30.9l-8.3-5.1l-7,8.8l-32.8,5l-8,33.5"/>
<path class="st0" id="ban-saint-martin" d="M284.2,369.2l11.8-18.8l-16.5-13.9l4.8-7.4l-9-13.8l8.5-5l38.3,21.6l17.5,28.4l-20.5,17 M284.2,369.2l4.5,10
	l30.3-1.8"/>
<path class="st0" id="ban-saint-martin" d="M597.8,214c0,0-2.8,13.5-3,14.9s-31.3,14.9-31.3,14.9l-45.5,1.9l-6.5-20.5l15.8-14.5l-4-14l8.8-25l13.5-3
	l10.3,29.5l34.8-1.5L597.8,214z"/>
<path class="st0" id="ban-saint-martin" d="M590.5,130L552,161.5l-6.5,7.3l-13.5,3l-42-18.5l3.3-12.8l7.5-34.3l13.8-16l41,7.3L590.5,130z"/>
<path class="st0" id="ban-saint-martin" d="M655.8,173.8l-11.5,6.5l-10.8-11.5l-23.5-10l-19.5,38l-34.8,1.5l-10.3-29.5l6.5-7.3l38.5-31.5l28.5-19.5
	L655.8,173.8z"/>
<path class="st0" id="ban-saint-martin" d="M431.9,137.9l23.8,7.3l12-15.4l25.5,10.5 M489.9,153l-20.8,15.5 M469.2,168.5l-34.5,2.3 M431.9,137.9l2.8,32.9
	 M493.2,140.2l-3.3,12.8"/>
<path class="st0" id="ban-saint-martin" d="M189.5,402.5l14.8,28.8l24.3,27.5l1.5,31.1l17,10.7l3.3,19l-30.3,5l-22.8-9.8l-8.5-14.3l-0.3-11.5l-11.8-7.3
	l14.8-38l-16.8-27L189.5,402.5z"/>
<path class="st0" id="ban-saint-martin" d="M237,437.5l-8.5,21.3l-24.3-27.5L237,437.5z"/>
<path class="st0" id="ban-saint-martin" d="M237,437.5l9-1.5l16.8,6l2.8,13.5v11.1l2.3,4.7l6.3,4.4l-3.3,7.3l2.5,20.3l-9.5,17.3l-7.3-2l-6.2,1l-3.3-19
	l-17-10.7l-1.3-31.7L237,437.5z"/>
<path class="st0" id="ban-saint-martin" d="M217,571.8l8.8,6.3l-5-16l6.3-10.4l-7-27.1l30.3-5l6.2-1l7.3,2l-1,7.5l-4.8,11.5l-1.5,26.3l2.8,19l-37,4l-12-15
	L217,571.8z"/>
<path class="st0" id="ban-saint-martin" d="M199.5,553.6l-2.8,13.6l-28.3,4.8l-6.8-5.8l-1.5-11.5L199.5,553.6z"/>
<path class="st0" id="ban-saint-martin" d="M79,538.3l9.8,6l2.3-10l8,4l7.3-10.3h9.3l18.5-10.5l31.3,1l2.8,6l-5.5,7.8l3.3,14.8l-8.5-8.8l-7,5.5l10,11
	l-23.3,0.8v-4.3l-46.3,4.3l-13.5-6.8L79,538.3z"/>
<path class="st0" id="ban-saint-martin" d="M29,576.5l-5-7.7l5.5-8.6l13.5,8.6l19.8-13.3l5-12.5l-1-5.3l5.8-5.5l6.5,6l-1.8,10.5l13.5,6.8l46.3-4.3v4.3
	l-40.8,21l-2.5,9.3L83,590l-5.8-5.3l-8.3,4L64.8,578l-7.3,4.8v7.3l-5.3-4.8L35,598l-7-4.3l-9.3,0.3v-9.8L29,576.5z"/>
<path class="st0" id="ban-saint-martin" d="M254.3,405.5l5.3-10.5l13.5-8.5l-2.8-18.8l14,1.8l4.5,10l2.1-0.1l-15.6,53.4l-12.5,9.3l-16.8-6L254.3,405.5z"/>
<path class="st0" id="ban-saint-martin" d="M275.3,432.8l15.6-53.4l28.1-1.6l10.5,7l2.5,15.8l-6.8,19.3l7.3,13l-4.3,30.3l-6.5,12.7h-12V463L297,450
	l-31.5,5.5l-2.8-13.5L275.3,432.8z"/>
<path class="st0" id="ban-saint-martin" d="M297,450l12.6,12.8l0.2,12.8l-17.5,24.8l-19,2.8l-2.5-20.3l3.3-7.3l-6.3-4.4l-2.3-4.7v-11.1L297,450z"/>
<path class="st0" id="ban-saint-martin" d="M309.8,475.7h12l6.5-12.7l35-7.5l7.8,14.8l-0.3,9.8l-28,4.5l-7,7.8l-37,18.6l-6.5-10.3L309.8,475.7z"/>
<path class="st0" id="ban-saint-martin" d="M263.8,520.5l9.5-17.3l19-2.8l6.5,10.3l37-18.6l4.8,20.5l-18.8,17.8l-9.5,10.5l-25.8,6l-23.8-19L263.8,520.5z"
	/>
<path class="st0" id="ban-saint-martin" d="M342.8,484.5l28-4.5l4.8,8.3l-35,24.5l-4.8-20.5L342.8,484.5z"/>
<path class="st0" id="ban-saint-martin" d="M258.2,539.1l4.6-11.1l23.8,19l25.8-6l15,35.5L306,589.9v11.3l-33.3,8.4l-16.3-11.4l2.8-13.5l-2.8-19
	L258.2,539.1z"/>
<path class="st0" id="ban-saint-martin" d="M340.5,512.8l35-24.5l12.1-1l-3.8,23.6l-10.6,6.7l-41.6,17.3l-9.9-4.3L340.5,512.8z"/>
<path class="st0" id="ban-saint-martin" d="M332.5,432.8l47-3.8l6.8,11.7l3.2,35l-1.9,11.6l-12.1,1l-4.8-8.3l0.3-9.8l-7.8-14.8l-35,7.5L332.5,432.8z"/>
<path class="st0" id="ban-saint-martin" d="M321.8,530.5l9.9,4.3l41.6-17.3l2.5,39L355,594.8h-16.8l-3.3-14.4l-7.8-3.8l-15-35.5L321.8,530.5z"/>
<path class="st0" id="ban-saint-martin" d="M327.3,576.5l7.8,3.8l3.3,14.4H355l13.5,48.8l-8,14.3l3,8.8h-19l-16.3-9.5l2.3-14.8l-17-27.6l3.8-8.9l-11.3-4.5
	v-11.3L327.3,576.5z"/>
<path class="st0" id="ban-saint-martin" d="M375.8,556.5l36.4,0.7l3.8,23.2l3.5,29.3l7.5,44.6l-7.5,5.8l-18,3.5l-16.5-2.8v-11.3l-9.8,0.3l-6.8-6.3
	L355,594.8L375.8,556.5z"/>
<path class="st0" id="ban-saint-martin" d="M383.8,510.8l21.5,4.8l6.8,22.3v19.2l-36.4-0.7l-2.5-39L383.8,510.8z"/>
<path class="st0" id="ban-saint-martin" d="M389.5,475.7L416,480l26.5,44.5L412.2,538l-6.8-22.3l-21.5-4.8L389.5,475.7z"/>
<path class="st0" id="ban-saint-martin" d="M442.5,524.5l5.5-3.7l21.2,2L477,562l-13.8,8.2L438,568l-22,12.3l-3.8-23.2l-0.2-19.7L442.5,524.5z"/>
<path class="st0" id="ban-saint-martin" d="M449,468.3l3.8,13.8l-4.8,38.7l-5.5,3.7L416,480L449,468.3z"/>
<path class="st0" id="ban-saint-martin" d="M452.8,482.2l41.2,7.7l9.8,18.2l-34.7,14.8l-21.2-2L452.8,482.2z"/>
<path class="st0" id="ban-saint-martin" d="M438,568l25.2,2.2v37.5l-43.7,2l-3.5-29.3L438,568z"/>
<path class="st0" id="ban-saint-martin" d="M477,562l20.7-3l12.8,27.2l-5.7,10l-30,18.5l-11.7-7v-37.5L477,562z"/>
<path class="st0" id="ban-saint-martin" d="M503.8,508l7.3,4.2l2.7,9l-13,10.2l4.8,18.8l-8,8.8l-20.7,3l-7.8-39.2L503.8,508z"/>
<path class="st0" id="ban-saint-martin" d="M513.8,521.2l11.2,1.7l0.7,13.7l-20,13.7l-4.8-18.8L513.8,521.2z"/>
<path class="st0" id="ban-saint-martin" d="M505.7,550.2l20-13.7l13.2,4.2l1.8,14.2l-30.2,31.3L497.7,559L505.7,550.2z"/>
<path class="st0" id="ban-saint-martin" d="M510.5,586.2l30.2-31.3l8,0.8l14.8,13.3l6-4.2l1.8,16.3l-7.5,12.2L535.2,609l-30.3-12.8L510.5,586.2z"/>
<path class="st0" id="ban-saint-martin" d="M562.7,522.8l8.7,2l11.2-12.8l35.7,9l10.7,64.2l-13.2,26.7h-10.8l-11.2-11.5l-4.2,7.3l-8.3-0.5l-9.8-9.3l-3.5,6
	l-2.2-2.7l-1.8-7.8l7.5-12.2l-1.8-16.3l-6,4.2l-14.8-13.3l-8-0.8l-1.8-14.2L562.7,522.8z"/>
<path class="st0" id="ban-saint-martin" d="M525,522.8l24.3-19.3l17,1.2l2.2-7.3l4.3-1.3l8.2,3.5l1.5,12.5l-11.2,12.8l-8.7-2l-23.8,17.8l-13.2-4.2
	L525,522.8z"/>
<path class="st0" id="ban-saint-martin" d="M505,467.8l40.5-1.3v2.1l9.8,10l3.3,7.7l6.5,1.2l3.3,9.8l-2.2,7.3l-17-1.2L525,522.8l-11.2-1.7l-2.7-9l-7.3-4.2
	l-9.8-18.2L505,467.8z"/>
<path class="st0" id="ban-saint-martin" d="M680.8,534.8l5.5,17.8l-17.8,7l3.3,16.5l-6.3,11.5l-36.7-2.3L618.2,521L680.8,534.8z"/>
<path class="st0" id="ban-saint-martin" d="M597.5,489.7l10.7-20.8l56.3,15.9v6.3h11.3l1.5,5l-8,6.3l1.3,4.5l15.8-1.8l4.8-9l9.8,1.5l3.3,6.5v20l4,18.5
	l8.3,12.3l-15-0.7l-15-1.7l-5.5-17.8L618.2,521l-35.7-9l-1.5-12.5L597.5,489.7z"/>
<path class="st0" id="ban-saint-martin" d="M562.5,461.2l15.3-1.7l1.5-12.2l14.2-5.8l14.7,27.3l-10.7,20.8l-16.5,9.8l-8.2-3.5l-4.3,1.3l-3.3-9.8l-6.5-1.2
	l-3.3-7.7L562.5,461.2z"/>
<path class="st0" id="ban-saint-martin" d="M569.3,421l10.1,26.3l-1.5,12.2l-15.3,1.7l-7.2,17.5l-9.8-10v-2.1l-11.3-23.3L569.3,421z"/>
<path class="st0" id="ban-saint-martin" d="M600.1,430.7l37.2,20l9,28.8l-38.1-10.8l-14.7-27.3L600.1,430.7z"/>
<path class="st0" id="ban-saint-martin" d="M660.8,436.3l25.5,3.5l6.5,14l-16,18.3v8.5l-12.3,4.3l-18.3-5.2l-9-28.8L660.8,436.3z"/>
<path class="st0" id="ban-saint-martin" d="M617.8,401.8l9.3-4.8l3-25.5h28l22.8,17.8l-18.5,21l-1.5,26l-23.5,14.5l-37.2-20L617.8,401.8z"/>
<path class="st0" id="ban-saint-martin" d="M585.8,383.8l4.5-10.3l24.5,2.5l-2.8,18.3l5.8,7.5l-24.3,39.8l-14.2,5.8L569.3,421l-8.3-29.5L585.8,383.8z"/>
<path class="st0" id="ban-saint-martin" d="M532.3,395.8l28.8-4.3l8.3,29.5l-35,22.3l-9-7.1L532.3,395.8z"/>
<path class="st0" id="ban-saint-martin" d="M501,381l15.3,11.3l9-5l7,8.5l-7,40.5l9,7.1l10.6,23.3l-39.8,1.3l-20.4-25.2l-5.8-35.7L501,381z"/>
<path class="st0" id="ban-saint-martin" d="M450,440.7l34.7,2.7l20.3,24.5l-11,22l-41.2-7.7l-3.8-13.8L450,440.7z"/>
<path class="st0" id="ban-saint-martin" d="M467.7,405.5l11.1,1.5l5.9,36.3l-34.7-2.7l-8.7-17.3L467.7,405.5z"/>
<path class="st0" id="ban-saint-martin" d="M380.5,403.8l30.5,1.8l24.3,5.5l6,12.3l-55,17.3l-6.8-11.7L380.5,403.8z"/>
<path class="st0" id="ban-saint-martin" d="M424.8,363.3l4.3,7.8l5-12l5.6,9.6l18.6-0.8l7.4,7.9l-5.3,10l7.3,19.8l-26.3,17.8l-6-12.3l-24.3-5.5
	L424.8,363.3z"/>
<path class="st0" id="ban-saint-martin" d="M467.3,346.8l11.5-5.3l40.5-4.6l9.5,15.4l-9.5,5l-6.8,10.5l12.8,19.5l-9,5L501,381l-13.3-9.5l-22.1,4.2
	l-7.4-7.9L467.3,346.8z"/>
<path class="st0" id="ban-saint-martin" d="M519.3,357.3l9.5-5l16.8,6.8l13.5-7.8l29.3,5l2,17.3l-4.5,10.3l-24.8,7.8l-28.8,4.3l-7-8.5l-12.8-19.5
	L519.3,357.3z"/>
<path class="st0" id="ban-saint-martin" d="M528.8,326.8l30.8,1.8l-0.5,22.8l-13.5,7.8l-16.8-6.8l-9.5-15.4L528.8,326.8z"/>
<path class="st0" id="ban-saint-martin" d="M559.5,328.5l9.8-12.5l10.9,14.3l18.9-12.5l6.5,9l-17.3,29.5l-29.3-5L559.5,328.5z"/>
<path class="st0" id="ban-saint-martin" d="M605.5,326.8h25l6.8,8.3l-3.3,13l-13.6,6.3l-5.6,21.8l-24.5-2.5l-2-17.3L605.5,326.8z"/>
<path class="st0" id="ban-saint-martin" d="M614.8,376l5.6-21.8L634,348l3.3-13l-6.8-8.3l8.5-11.3l48,14.8l-11.5,22.3h-13.3l-4.2,19h-28l-3,25.5l-9.3,4.8
	l-5.8-7.5L614.8,376z"/>
<path class="st0" id="ban-saint-martin" d="M662.2,352.5h13.3l11.5-22.3l24.8,8.8l56.5,34.5l4.8,11.8l-3.5,10.5l-17-12.5l-17,13.8l-54.8-7.8L658,371.5
	L662.2,352.5z"/>
<path class="st0" id="ban-saint-martin" d="M605.5,305.3l28.5-12.8l-1.8-21.8L646,251l9.5,4.8l14.2,2.4l3-7.2l7.3-3.7l1.8,11.3l10.3,1.3l2.5,7.6h-8.8
	l1,8.5l-11,18l15,20l-3.8,16.3l-48-14.8l-8.5,11.3h-25l-6.5-9L605.5,305.3z"/>
<path class="st0" id="ban-saint-martin" d="M599,278.8l33.3-8.1l1.8,21.8l-28.5,12.8l-17.8-8.8L599,278.8z"/>
<path class="st0" id="ban-saint-martin" d="M587.8,296.5l17.8,8.8l-6.5,12.5l-18.9,12.5L569.3,316v-14.8L587.8,296.5z"/>
<path class="st0" id="ban-saint-martin" d="M597.8,214l33.5,10v8.5l14.8,3.8V251l-13.8,19.7l-33.3,8.1l-2.3-9.9l16.5-12.6l0.5-21l-19-6.3L597.8,214z"/>
<path class="st0" id="ban-saint-martin" d="M594.8,228.9l19,6.3l-0.5,21l-16.5,12.6l-24,7.1l-9.3-32.1C563.5,243.9,592.6,230.9,594.8,228.9z"/>
<path class="st0" id="ban-saint-martin" d="M478.8,288.5l5.9,15.8l44.1,7.5v15l-9.5,10.1l-40.5,4.6l-8.9-23.8l-6.4-23.8L478.8,288.5z"/>
<path class="st0" id="ban-saint-martin" d="M515,261.8l-4.3-12.5l7.3-3.5l45.5-1.9l9.3,32.1l24-7.1l2.3,9.9l-11.3,17.8l-18.5,4.8l-15-5.9l-3.8-10.9
	l-14.8-5.5l-15.1,11l-15.4-11L515,261.8z"/>
<path class="st0" id="ban-saint-martin" d="M481.8,269l9.5-10.3l19.4-9.4l4.3,12.5l-9.8,17.3l-26.5,9.5L481.8,269z"/>
<path class="st0" id="ban-saint-martin" d="M467.5,258.7l9-11.3l14.8,11.3l-9.5,10.3l-3,19.5l-15.3,5.5l-3-11L467.5,258.7z"/>
<path class="st0" id="ban-saint-martin" d="M460.5,258.7h7l-7,24.3l-13.3-16.8L460.5,258.7z"/>
<path class="st0" id="ban-saint-martin" d="M436,251h24.5v7.7l-13.3,7.6l13.3,16.8l3,11l-11,2.8l-20.6-27.6l-10.8-2L436,251z"/>
<path class="st0" id="ban-saint-martin" d="M496.8,230.7l14.8-5.4l6.5,20.5l-7.3,3.5l-19.4,9.4l-14.8-11.3L496.8,230.7z"/>
<path class="st0" id="ban-saint-martin" d="M494.8,194.8l28.5,2l4,14l-15.8,14.5l-14.8,5.4l-20.3,16.7L469,214L494.8,194.8z"/>
<path class="st0" id="ban-saint-martin" d="M447.3,221.3L469,214l7.5,33.3l-9.3,11.3h-6.7V251H436l-4.5-7.1L447.3,221.3z"/>
<path class="st0" id="ban-saint-martin" d="M413,221.3l22-7.3l12.3,7.3l-15.8,22.6l-22.2-2.9L413,221.3z"/>
<path class="st0" id="ban-saint-martin" d="M386.8,191.5l17.5-4.5l7.3,11.5l1.5,22.8l-3.7,19.8l-6,13l-26.3-6.7l-1.8-45.6L386.8,191.5z"/>
<path class="st0" id="ban-saint-martin" d="M434.8,171l0.3,43l-22,7.3l-1.5-22.8l-7.3-11.5L434.8,171z"/>
<path class="st0" id="ban-saint-martin" d="M490,153.3l42,18.5l-8.8,25l-28.5-2L495,181l-25.8-12.3L490,153.3z"/>
<path class="st0" id="ban-saint-martin" d="M469.3,168.8L495,181l-0.3,13.8L469,214l-21.8,7.3L435,214l-0.3-43L469.3,168.8z"/>
</svg>
