<?xml version="1.0" encoding="UTF-8" standalone="no"?>
<!-- Created with Inkscape (http://www.inkscape.org/) -->

<svg
   xmlns:dc="http://purl.org/dc/elements/1.1/"
   xmlns:cc="http://creativecommons.org/ns#"
   xmlns:rdf="http://www.w3.org/1999/02/22-rdf-syntax-ns#"
   xmlns:svg="http://www.w3.org/2000/svg"
   xmlns="http://www.w3.org/2000/svg"
   xmlns:sodipodi="http://sodipodi.sourceforge.net/DTD/sodipodi-0.dtd"
   xmlns:inkscape="http://www.inkscape.org/namespaces/inkscape"
   width="210mm"
   height="297mm"
   viewBox="0 0 210 297"
   version="1.1"
   id="svg8"
   inkscape:version="0.92.4 (unknown)"
   sodipodi:docname="map_v4.svg">
  <defs
     id="defs2" />
  <sodipodi:namedview
     id="base"
     pagecolor="#ffffff"
     bordercolor="#666666"
     borderopacity="1.0"
     inkscape:pageopacity="0.0"
     inkscape:pageshadow="2"
     inkscape:zoom="0.7"
     inkscape:cx="158.81993"
     inkscape:cy="551.13151"
     inkscape:document-units="mm"
     inkscape:current-layer="layer1"
     showgrid="false"
     inkscape:window-width="1920"
     inkscape:window-height="1027"
     inkscape:window-x="0"
     inkscape:window-y="0"
     inkscape:window-maximized="1" />
  <metadata
     id="metadata5">
    <rdf:RDF>
      <cc:Work
         rdf:about="">
        <dc:format>image/svg+xml</dc:format>
        <dc:type
           rdf:resource="http://purl.org/dc/dcmitype/StillImage" />
        <dc:title></dc:title>
      </cc:Work>
    </rdf:RDF>
  </metadata>
  <g
     inkscape:label="Layer 1"
     inkscape:groupmode="layer"
     id="layer1">
     <path d="m 69.32004,196.974 c -2.876158,-4.22898 -5.233013,-7.7996 -5.237455,-7.93473 -0.0044,-0.13512 0.47777,-1.98141 1.071581,-4.10286 l 1.079656,-3.85719 8.102191,-4.68344 8.102191,-4.68344 7.045927,-7.27194 7.045927,-7.27195 -2.741803,-14.97714 -2.741805,-14.97713 2.367998,-2.58064 c 4.24062,-4.62142 5.410869,-5.58488 10.720632,-8.82626 2.85502,-1.74287 5.23213,-3.20524 5.28248,-3.24972 0.0503,-0.0445 1.14686,-4.53355 2.4367,-9.97572 1.28984,-5.442161 2.41915,-10.195175 2.50958,-10.562249 0.21286,-0.864008 1.33962,-0.926381 1.33962,-0.07416 0,0.514382 0.19775,0.593251 1.48749,0.593251 1.35987,0 1.53791,0.08271 2.07527,0.964032 0.34055,0.558543 0.58825,1.491751 0.58889,2.218661 8.9e-4,1.162579 0.0873,1.298597 1.17579,1.853908 0.64608,0.329604 1.51587,0.599279 1.93287,0.599279 0.57443,0 0.87815,0.251598 1.25325,1.038189 0.27229,0.571004 0.58405,1.038189 0.69279,1.038189 0.46773,0 4.30678,2.73324 4.49085,3.19728 0.11137,0.2808 0.21188,0.94055 0.22334,1.46611 0.0115,0.52557 0.33947,1.66016 0.7289,2.52132 1.10171,2.43627 3.26846,3.79043 6.06495,3.79043 0.75811,0 1.90392,0.27047 2.62536,0.61971 1.23031,0.59558 1.28015,0.67218 1.28015,1.9672 0,1.15759 0.14738,1.48647 1.04577,2.33377 1.37024,1.2923 3.96695,2.14571 5.0405,1.65657 1.11915,-0.50992 1.24664,-0.46041 2.08803,0.81102 0.80359,1.2143 2.96827,2.40036 4.3809,2.40036 0.5685,0 0.82902,0.25117 1.18605,1.14347 0.25164,0.6289 1.04863,1.73457 1.77111,2.45704 0.72247,0.72247 1.51946,1.70958 1.77109,2.19357 0.25163,0.484 1.01313,1.28044 1.69223,1.76987 0.6791,0.48943 1.77231,1.32369 2.42935,1.85391 0.65705,0.53022 1.31548,0.96403 1.46319,0.96403 0.60449,0 1.45506,1.23609 1.45506,2.11458 0,0.64113 0.31581,1.27765 1.02141,2.05866 0.56177,0.62182 1.22146,1.51744 1.46597,1.99028 0.44224,0.85519 0.43534,0.86882 -1.31803,2.6039 -1.70136,1.68361 -1.7626,1.79763 -1.7626,3.28176 0,1.4417 0.0555,1.55689 0.88987,1.84776 0.88896,0.30989 0.88988,0.31268 0.88988,2.68821 0,2.69379 -0.22788,2.99212 -2.28554,2.99212 -1.0335,0 -1.20145,0.11607 -1.82827,1.26352 -0.68066,1.24601 -0.68336,1.2871 -0.19522,2.96625 0.45709,1.57235 0.56153,1.70274 1.36383,1.70274 0.76742,0 0.86882,0.10375 0.86882,0.88902 0,0.60615 -0.34408,1.26987 -1.08141,2.08601 -1.17413,1.29962 -1.15881,1.57415 0.18152,3.2541 0.45756,0.57349 0.63628,1.39375 0.78853,3.61913 0.18161,2.65434 0.2626,2.94052 1.044,3.68915 1.19582,1.14568 1.14421,2.37265 -0.1527,3.62966 -0.81576,0.79066 -1.0353,1.27097 -1.19256,2.60903 -0.13103,1.1148 -0.48034,2.05795 -1.09081,2.94525 -0.88541,1.2869 -0.92208,1.3053 -2.60178,1.3053 l -1.70371,0 -0.80335,1.63801 c -0.44185,0.9009 -0.80336,2.09824 -0.80336,2.66074 0,0.76965 -0.20186,1.17414 -0.81572,1.63454 -0.44865,0.33648 -1.27332,1.24995 -1.83262,2.02991 l -1.0169,1.41812 -5.70072,-0.13065 c -5.5764,-0.12779 -5.7081,-0.11688 -6.03839,0.50029 -0.27989,0.52296 -0.60961,0.63092 -1.92693,0.63092 -1.13905,0 -1.63764,0.12605 -1.76001,0.44494 -0.12494,0.32559 -0.63786,0.44494 -1.91218,0.44494 -1.5697,0 -1.77478,0.0731 -2.07933,0.74156 -0.4469,0.98083 -2.17412,1.05454 -2.82822,0.12069 -0.41612,-0.5941 -0.59278,-0.61169 -4.09541,-0.4078 -3.11708,0.18146 -3.94187,0.33969 -5.55548,1.06582 -1.22706,0.55218 -2.38973,0.85273 -3.2988,0.85273 -1.27147,0 -1.47041,0.0977 -2.1095,1.03616 -0.65862,0.96712 -0.81187,1.0363 -2.29975,1.03819 -1.18914,0.001 -2.17824,-0.26172 -3.89346,-1.03616 -3.3054,-1.49243 -4.52675,-1.43719 -6.55797,0.29662 -1.3858,1.18291 -1.72722,1.33482 -2.999998,1.33482 -0.789925,0 -1.915425,-0.20022 -2.501112,-0.44494 -0.782432,-0.32692 -2.21965,-0.44494 -5.418453,-0.44494 l -4.353566,0 -0.375082,1.03727 c -0.26517,0.73332 -0.60859,1.09204 -1.171934,1.22415 -1.294293,0.30352 -2.724915,1.85399 -2.724915,2.9532 0,0.72677 -0.274662,1.19362 -1.187356,2.01819 l -1.187356,1.0727 -3.075273,0 -3.075274,0 -5.229381,-7.68905 z" fill="white" stroke-width="2" stroke="black" id="hoscheid" class="pathRegion">
     <circle cx="115.73052978515625" cy="148.00049591064453" r="4px" fill="black" class="top"></circle>
   </path>
    <path
       style="fill:none;stroke:#000000;stroke-width:0.26458332px;stroke-linecap:butt;stroke-linejoin:miter;stroke-opacity:1"
       d="m 62.744048,122.75298 c 4.157736,-26.836316 26.836308,-20.03274 26.836308,-20.03274 0,0 18.520834,17.76488 20.410714,14.36309 1.88988,-3.40178 -18.142856,14.74107 -6.80357,12.09524 11.33928,-2.64583 -0.37798,20.03274 -17.764883,12.85119 -17.386903,-7.18155 -20.032736,-11.33928 -10.205357,-16.25298 9.827381,-4.91369 29.10417,-7.9375 9.07143,-5.29166 -20.032739,2.64583 -21.544642,2.26786 -21.544642,2.26786 z"
       id="hoscheid"
       inkscape:connector-curvature="0">
       <circle cx="250" cy="300" r="4px" fill="black" class="top"></circle>
    </path>
       <!--
    <path
       style="fill:none;stroke:#000000;stroke-width:0.26458332px;stroke-linecap:butt;stroke-linejoin:miter;stroke-opacity:1"
       d="m 79.752975,46.02381 c 61.610115,18.520833 92.226185,3.779761 61.988095,21.544642 -30.2381,17.764879 12.85119,45.735118 -30.2381,17.764879 C 68.41369,57.363095 97.13988,67.568452 89.202381,59.630952 81.264881,51.693452 79.752975,46.02381 79.752975,46.02381 Z"
       id="path817"
       inkscape:connector-curvature="0" /> -->
  </g>
</svg>
