<?xml version="1.0" encoding="utf-8"?>
<!-- Generator: Adobe Illustrator 19.1.1, SVG Export Plug-In . SVG Version: 6.00 Build 0)  -->
<svg version="1.1" id="Calque_1" xmlns="http://www.w3.org/2000/svg" xmlns:xlink="http://www.w3.org/1999/xlink" x="0px" y="0px"
	 viewBox="0 0 241.2 257.6" style="enable-background:new 0 0 241.2 257.6;" xml:space="preserve">
<style type="text/css">
	.st0{fill:none;stroke:#000000;stroke-miterlimit:10;}
</style>
<path class="st0" d="M139.8,153.6l-34.7,1.5l-10.3-29.5l-13.5,3l-8.8,25l4,14l-15.8,14.5l6.5,20.5l45.5-1.9c0,0,31-13.5,31.2-14.9
	s3-14.9,3-14.9L139.8,153.6z" id="larochette"/>
<polygon class="st0" points="39.3,110.1 81.3,128.6 94.8,125.6 101.3,118.3 139.8,86.8 104.8,54.3 63.8,47.1 50,63.1 42.5,97.3 "/>
<polygon class="st0" points="94.8,125.6 105,155.1 139.8,153.6 159.3,115.6 182.8,125.6 193.5,137.1 205,130.6 168.3,67.3
	139.8,86.8 101.3,118.3 "/>
</svg>
