<?xml version="1.0" encoding="utf-8"?>
<!-- Generator: Adobe Illustrator 19.1.1, SVG Export Plug-In . SVG Version: 6.00 Build 0)  -->
<svg version="1.1" id="Calque_1" xmlns="http://www.w3.org/2000/svg" xmlns:xlink="http://www.w3.org/1999/xlink" x="0px" y="0px"
	 viewBox="104 61.9 803 718" style="enable-background:new 104 61.9 803 718;" xml:space="preserve">
<style type="text/css">
	.st0{fill:none;stroke:#000000;stroke-miterlimit:10;}
	.st1{fill:none;stroke:#CC2F2F;stroke-miterlimit:10;}
	.st2{fill:#3F3F3F;}
</style>
<path id="ban-saint-martin" class="st0" d="M224.1,455.7l49.5-18.8l2.8-14.8l20.3,0.3l2.5,23.3L284.4,460l16.8,27l-14.8,38
	l-9.3,2.3l-17.3-10.5h-9.2l-4.3,5.3L236,504.8l-9.8,2l-15.6-32.3L224.1,455.7z"/>
<path id="ban-saint-martin" class="st0" d="M332.4,380.1l24.3,11.9h24l18.3,12.6l-5.1,8.1l-14-1.8h-51.5L332.4,380.1z"/>
<path id="ban-saint-martin" class="st0" d="M357.9,243.5l17.8,5l17.8,13.8l25.3-0.3l11,15.8l-1.5,8.3l-46,6.8l-36.9-22.7v-21.3
	L357.9,243.5z"/>
<path id="ban-saint-martin" class="st0" d="M417.1,238l6.5,19.2l-5,4.8l-25.3,0.3l-17.7-13.8L417.1,238z"/>
<path id="ban-saint-martin" class="st0" d="M345.3,248.7l-14.5-5.5l3.8-22.3h17.3l30.1-18.3l29.4-6.5l19.3,15.8h20.8l0.7,14.7
	l-18.8,0.3l-36.3-10.3l-37.5,15l-1.8,11.5 M357.8,243.2l-12.5,5.5"/>
<path id="ban-saint-martin" class="st0" d="M359.6,232l37.5-15l35.8,10.1l19.3-0.1l0.9,19.5l-29.5,10.7l-6.5-19.3l-41.5,10.6
	l-17.8-5L359.6,232z"/>
<path id="ban-saint-martin" class="st0" d="M429.1,344.2h22.3l20,5.7l-5.1,16.1l-17.3-2.1l-22.5-6.2L429.1,344.2z"/>
<path id="ban-saint-martin" class="st0" d="M513.8,229.9l-17.5,4.5l-9.8-19l29.5-60l32.8-8.8l17.8,7.5l-25,26.9l2.8,32.9L513.8,229.9"/>
<path id="ban-saint-martin" class="st0" d="M449,363.6l-22.5-6.2l2.5-13.5 M425,341.2l4,2.8 M431.5,375.3l16.7-5.8l0.8-5.8
	 M425,341.2l-17.5-4.3l-14.3,16.8l38.3,21.6"/>
<path id="ban-saint-martin" class="st0" d="M299.3,315.4l1.3-15.3l8.8-4l10.3,6l8.8-6l20.3,7.3l13-7.3l14,13.3l15.8,45.4
	 M299.3,315.4l20.3,7l22,29l43.2,7.3 M391.4,354.8l-6.6,3.9"/>
<path id="ban-saint-martin" class="st0" d="M389,379.8l-12.3-5.1l-14.5,6.3l-38.5-23 M389,379.8l4.8-7.4l-9-13.8l-43.2-7.3
	l-22-29l-20.3-7l-6.3,25.8l30.8,16.8"/>
<path id="ban-saint-martin" class="st0" d="M296.5,422.2l9-11.5l20.3,24.5l14.3-1.5l23.8,14.8 M276.3,421.9l20.3,0.3
	 M363.8,448.4l5.2-10.5l13.5-8.5l-2.8-18.8h-51.5l4-30.9l-8.3-5.1l-7,8.8l-32.8,5l-8,33.5"/>
<path id="ban-saint-martin" class="st0" d="M393.8,412.4l11.8-18.8l-16.5-13.9l4.8-7.4l-9-13.8l8.5-5l38.3,21.6l17.5,28.4
	l-20.5,17 M393.8,412.4l4.5,10l30.3-1.8"/>
<path id="ban-saint-martin" class="st0" d="M707.4,257.2c0,0-2.8,13.5-3,14.9S673.1,287,673.1,287l-45.5,1.9l-6.5-20.5
	l15.8-14.5l-4-14l8.8-25l13.5-3l10.3,29.5l34.8-1.5L707.4,257.2z"/>
<path id="ban-saint-martin" class="st0" d="M700.1,173.2l-38.5,31.5l-6.5,7.3l-13.5,3l-42-18.5l3.3-12.8l7.5-34.3l13.8-16
	l41,7.3L700.1,173.2z"/>
<path id="ban-saint-martin" class="st0" d="M765.4,217l-11.5,6.5L743.1,212l-23.5-10l-19.5,38l-34.8,1.5L655,212l6.5-7.3
	l38.5-31.5l28.5-19.5L765.4,217z"/>
<path id="ban-saint-martin" class="st0" d="M299.1,445.7l14.8,28.8l24.3,27.5l1.5,31.1l17,10.7l3.3,19l-30.3,5l-22.8-9.8
	l-8.5-14.3l-0.3-11.5l-11.8-7.3l14.8-38l-16.8-27L299.1,445.7z"/>
<path id="ban-saint-martin" class="st0" d="M346.6,480.7l-8.5,21.3l-24.3-27.5L346.6,480.7z"/>
<path id="ban-saint-martin" class="st0" d="M346.6,480.7l9-1.5l16.8,6l2.8,13.5v11.1l2.3,4.7l6.3,4.4l-3.3,7.3l2.5,20.3
	l-9.5,17.3l-7.3-2l-6.2,1l-3.3-19l-17-10.7l-1.3-31.7L346.6,480.7z"/>
<path id="ban-saint-martin" class="st0" d="M326.6,615l8.8,6.3l-5-16l6.3-10.4l-7-27.1l30.3-5l6.2-1l7.3,2l-1,7.5l-4.8,11.5
	l-1.5,26.3l2.8,19l-37,4l-12-15L326.6,615z"/>
<path id="ban-saint-martin" class="st0" d="M309.1,596.8l-2.8,13.6l-28.3,4.8l-6.8-5.8l-1.5-11.5L309.1,596.8z"/>
<path id="ban-saint-martin" class="st0" d="M188.6,581.5l9.8,6l2.3-10l8,4l7.3-10.3h9.3l18.5-10.5l31.3,1l2.8,6l-5.5,7.8
	l3.3,14.8l-8.5-8.8l-7,5.5l10,11l-23.3,0.8v-4.3l-46.3,4.3l-13.5-6.8L188.6,581.5z"/>
<path id="ban-saint-martin" class="st0" d="M138.6,619.7l-5-7.7l5.5-8.6l13.5,8.6l19.8-13.3l5-12.5l-1-5.3l5.8-5.5l6.5,6
	l-1.8,10.5l13.5,6.8l46.3-4.3v4.3l-40.8,21l-2.5,9.3l-10.8,4.2l-5.8-5.3l-8.3,4l-4.1-10.7l-7.3,4.8v7.3l-5.3-4.8l-17.2,12.7l-7-4.3
	l-9.3,0.3v-9.8L138.6,619.7z"/>
<path id="ban-saint-martin" class="st0" d="M363.9,448.7l5.3-10.5l13.5-8.5l-2.8-18.8l14,1.8l4.5,10l2.1-0.1L384.9,476
	l-12.5,9.3l-16.8-6L363.9,448.7z"/>
<path id="ban-saint-martin" class="st0" d="M384.9,476l15.6-53.4l28.1-1.6l10.5,7l2.5,15.8l-6.8,19.3l7.3,13l-4.3,30.3
	l-6.5,12.7h-12v-12.9l-12.7-13l-31.5,5.5l-2.8-13.5L384.9,476z"/>
<path id="ban-saint-martin" class="st0" d="M406.6,493.2l12.6,12.8l0.2,12.8l-17.5,24.8l-19,2.8l-2.5-20.3l3.3-7.3l-6.3-4.4
	l-2.3-4.7v-11.1L406.6,493.2z"/>
<path id="ban-saint-martin" class="st0" d="M419.4,518.9h12l6.5-12.7l35-7.5l7.8,14.8l-0.3,9.8l-28,4.5l-7,7.8l-37,18.6
	l-6.5-10.3L419.4,518.9z"/>
<path id="ban-saint-martin" class="st0" d="M373.4,563.7l9.5-17.3l19-2.8l6.5,10.3l37-18.6l4.8,20.5l-18.8,17.8l-9.5,10.5
	l-25.8,6l-23.8-19L373.4,563.7z"/>
<path id="ban-saint-martin" class="st0" d="M452.4,527.7l28-4.5l4.8,8.3l-35,24.5l-4.8-20.5L452.4,527.7z"/>
<path id="ban-saint-martin" class="st0" d="M367.8,582.3l4.6-11.1l23.8,19l25.8-6l15,35.5l-21.4,13.4v11.3l-33.3,8.4L366,641.4
	l2.8-13.5l-2.8-19L367.8,582.3z"/>
<path id="ban-saint-martin" class="st0" d="M450.1,556l35-24.5l12.1-1l-3.8,23.6l-10.6,6.7l-41.6,17.3l-9.9-4.3L450.1,556z"/>
<path id="ban-saint-martin" class="st0" d="M442.1,476l47-3.8l6.8,11.7l3.2,35l-1.9,11.6l-12.1,1l-4.8-8.3l0.3-9.8l-7.8-14.8
	l-35,7.5L442.1,476z"/>
<path id="ban-saint-martin" class="st0" d="M431.4,573.7l9.9,4.3l41.6-17.3l2.5,39L464.6,638h-16.8l-3.3-14.4l-7.8-3.8l-15-35.5
	L431.4,573.7z"/>
<path id="ban-saint-martin" class="st0" d="M436.9,619.7l7.8,3.8l3.3,14.4h16.6l13.5,48.8l-8,14.3l3,8.8h-19l-16.3-9.5l2.3-14.8
	l-17-27.6l3.8-8.9l-11.3-4.5v-11.3L436.9,619.7z"/>
<path id="ban-saint-martin" class="st0" d="M485.4,599.7l36.4,0.7l3.8,23.2l3.5,29.3l7.5,44.6l-7.5,5.8l-18,3.5l-16.5-2.8v-11.3
	l-9.8,0.3l-6.8-6.3L464.6,638L485.4,599.7z"/>
<path id="ban-saint-martin" class="st0" d="M493.4,554l21.5,4.8l6.8,22.3v19.2l-36.4-0.7l-2.5-39L493.4,554z"/>
<path id="ban-saint-martin" class="st0" d="M499.1,518.9l26.5,4.3l26.5,44.5l-30.3,13.5l-6.8-22.3l-21.5-4.8L499.1,518.9z"/>
<path id="ban-saint-martin" class="st0" d="M552.1,567.7l5.5-3.7l21.2,2l7.8,39.2l-13.8,8.2l-25.2-2.2l-22,12.3l-3.8-23.2
	l-0.2-19.7L552.1,567.7z"/>
<path id="ban-saint-martin" class="st0" d="M558.6,511.5l3.8,13.8l-4.8,38.7l-5.5,3.7l-26.5-44.5L558.6,511.5z"/>
<path id="ban-saint-martin" class="st0" d="M562.4,525.4l41.2,7.7l9.8,18.2l-34.7,14.8l-21.2-2L562.4,525.4z"/>
<path id="ban-saint-martin" class="st0" d="M547.6,611.2l25.2,2.2v37.5l-43.7,2l-3.5-29.3L547.6,611.2z"/>
<path id="ban-saint-martin" class="st0" d="M586.6,605.2l20.7-3l12.8,27.2l-5.7,10l-30,18.5l-11.7-7v-37.5L586.6,605.2z"/>
<path id="ban-saint-martin" class="st0" d="M613.4,551.2l7.3,4.2l2.7,9l-13,10.2l4.8,18.8l-8,8.8l-20.7,3l-7.8-39.2L613.4,551.2
	z"/>
<path id="ban-saint-martin" class="st0" d="M623.4,564.4l11.2,1.7l0.7,13.7l-20,13.7l-4.8-18.8L623.4,564.4z"/>
<path id="ban-saint-martin" class="st0" d="M615.3,593.4l20-13.7l13.2,4.2l1.8,14.2l-30.2,31.3l-12.8-27.2L615.3,593.4z"/>
<path id="ban-saint-martin" class="st0" d="M620.1,629.4l30.2-31.3l8,0.8l14.8,13.3l6-4.2l1.8,16.3l-7.5,12.2l-28.6,15.7
	l-30.3-12.8L620.1,629.4z"/>
<path id="ban-saint-martin" class="st0" d="M672.3,566l8.7,2l11.2-12.8l35.7,9l10.7,64.2l-13.2,26.7h-10.8l-11.2-11.5l-4.2,7.3
	l-8.3-0.5l-9.8-9.3l-3.5,6l-2.2-2.7l-1.8-7.8l7.5-12.2l-1.8-16.3l-6,4.2L658.5,599l-8-0.8l-1.8-14.2L672.3,566z"/>
<path id="ban-saint-martin" class="st0" d="M634.6,566l24.3-19.3l17,1.2l2.2-7.3l4.3-1.3l8.2,3.5l1.5,12.5l-11.2,12.8l-8.7-2
	l-23.8,17.8l-13.2-4.2L634.6,566z"/>
<path id="ban-saint-martin" class="st0" d="M614.6,511l40.5-1.3v2.1l9.8,10l3.3,7.7l6.5,1.2l3.3,9.8l-2.2,7.3l-17-1.2L634.6,566
	l-11.2-1.7l-2.7-9l-7.3-4.2l-9.8-18.2L614.6,511z"/>
<path id="ban-saint-martin" class="st0" d="M790.4,578l5.5,17.8l-17.8,7l3.3,16.5l-6.3,11.5l-36.7-2.3l-10.6-64.3L790.4,578z"/>
<path id="ban-saint-martin" class="st0" d="M707.1,532.9l10.7-20.8l56.3,15.9v6.3h11.3l1.5,5l-8,6.3l1.3,4.5l15.8-1.8l4.8-9
	l9.8,1.5l3.3,6.5v20l4,18.5l8.3,12.3l-15-0.7l-15-1.7l-5.5-17.8l-62.9-13.7l-35.7-9l-1.5-12.5L707.1,532.9z"/>
<path id="ban-saint-martin" class="st0" d="M672.1,504.4l15.3-1.7l1.5-12.2l14.2-5.8l14.7,27.3l-10.7,20.8l-16.5,9.8l-8.2-3.5
	l-4.3,1.3l-3.3-9.8l-6.5-1.2l-3.3-7.7L672.1,504.4z"/>
<path id="ban-saint-martin" class="st0" d="M678.9,464.2l10.1,26.3l-1.5,12.2l-15.3,1.7l-7.2,17.5l-9.8-10v-2.1l-11.3-23.3
	L678.9,464.2z"/>
<path id="ban-saint-martin" class="st0" d="M709.7,473.9l37.2,20l9,28.8l-38.1-10.8l-14.7-27.3L709.7,473.9z"/>
<path id="ban-saint-martin" class="st0" d="M770.4,479.5l25.5,3.5l6.5,14l-16,18.3v8.5l-12.3,4.3l-18.3-5.2l-9-28.8L770.4,479.5
	z"/>
<path id="ban-saint-martin" class="st0" d="M727.4,445l9.3-4.8l3-25.5h28l22.8,17.8l-18.5,21l-1.5,26L747,494l-37.2-20
	L727.4,445z"/>
<path id="ban-saint-martin" class="st0" d="M695.4,427l4.5-10.3l24.5,2.5l-2.8,18.3l5.8,7.5l-24.3,39.8l-14.2,5.8l-10-26.4
	l-8.3-29.5L695.4,427z"/>
<path id="ban-saint-martin" class="st0" d="M641.9,439l28.8-4.3l8.3,29.5l-35,22.3l-9-7.1L641.9,439z"/>
<path id="ban-saint-martin" class="st0" d="M610.6,424.2l15.3,11.3l9-5l7,8.5l-7,40.5l9,7.1l10.6,23.3l-39.8,1.3L594.3,486
	l-5.8-35.7L610.6,424.2z"/>
<path id="ban-saint-martin" class="st0" d="M559.6,483.9l34.7,2.7l20.3,24.5l-11,22l-41.2-7.7l-3.8-13.8L559.6,483.9z"/>
<path id="ban-saint-martin" class="st0" d="M577.3,448.7l11.1,1.5l5.9,36.3l-34.7-2.7l-8.7-17.3L577.3,448.7z"/>
<path id="ban-saint-martin" class="st0" d="M490.1,447l30.5,1.8l24.3,5.5l6,12.3l-55,17.3l-6.8-11.7L490.1,447z"/>
<path id="ban-saint-martin" class="st0" d="M534.4,406.5l4.3,7.8l5-12l5.6,9.6l18.6-0.8l7.4,7.9l-5.3,10l7.3,19.8L551,466.6
	l-6-12.3l-24.3-5.5L534.4,406.5z"/>
<path id="ban-saint-martin" class="st0" d="M576.9,390l11.5-5.3l40.5-4.6l9.5,15.4l-9.5,5l-6.8,10.5l12.8,19.5l-9,5l-15.3-11.3
	l-13.3-9.5l-22.1,4.2l-7.4-7.9L576.9,390z"/>
<path id="ban-saint-martin" class="st0" d="M628.9,400.5l9.5-5l16.8,6.8l13.5-7.8l29.3,5l2,17.3l-4.5,10.3l-24.8,7.8l-28.8,4.3
	l-7-8.5l-12.8-19.5L628.9,400.5z"/>
<path id="ban-saint-martin" class="st0" d="M638.4,370l30.8,1.8l-0.5,22.8l-13.5,7.8l-16.8-6.8l-9.5-15.4L638.4,370z"/>
<path id="ban-saint-martin" class="st0" d="M669.1,371.7l9.8-12.5l10.9,14.3l18.9-12.5l6.5,9l-17.3,29.5l-29.3-5L669.1,371.7z"
	/>
<path id="ban-saint-martin" class="st0" d="M715.1,370h25l6.8,8.3l-3.3,13l-13.6,6.3l-5.6,21.8l-24.5-2.5l-2-17.3L715.1,370z"/>
<path id="ban-saint-martin" class="st0" d="M724.4,419.2l5.6-21.8l13.6-6.2l3.3-13l-6.8-8.3l8.5-11.3l48,14.8l-11.5,22.3h-13.3
	l-4.2,19h-28l-3,25.5l-9.3,4.8l-5.8-7.5L724.4,419.2z"/>
<path id="ban-saint-martin" class="st0" d="M771.8,395.7h13.3l11.5-22.3l24.8,8.8l56.5,34.5l4.8,11.8l-3.5,10.5l-17-12.5
	l-17,13.8l-54.8-7.8l-22.8-17.8L771.8,395.7z"/>
<path id="ban-saint-martin" class="st0" d="M715.1,348.5l28.5-12.8l-1.8-21.8l13.8-19.7l9.5,4.8l14.2,2.4l3-7.2l7.3-3.7
	l1.8,11.3l10.3,1.3l2.5,7.6h-8.8l1,8.5l-11,18l15,20l-3.8,16.3l-48-14.8l-8.5,11.3h-25l-6.5-9L715.1,348.5z"/>
<path id="ban-saint-martin" class="st0" d="M708.6,322l33.3-8.1l1.8,21.8l-28.5,12.8l-17.8-8.8L708.6,322z"/>
<path id="ban-saint-martin" class="st0" d="M697.4,339.7l17.8,8.8l-6.5,12.5l-18.9,12.5l-10.9-14.3v-14.8L697.4,339.7z"/>
<path id="ban-saint-martin" class="st0" d="M707.4,257.2l33.5,10v8.5l14.8,3.8v14.7l-13.8,19.7l-33.3,8.1l-2.3-9.9l16.5-12.6
	l0.5-21l-19-6.3L707.4,257.2z"/>
<path id="ban-saint-martin" class="st0" d="M704.4,272.1l19,6.3l-0.5,21L706.4,312l-24,7.1l-9.3-32.1
	C673.1,287.1,702.2,274.1,704.4,272.1z"/>
<path id="ban-saint-martin" class="st0" d="M588.4,331.7l5.9,15.8l44.1,7.5v15l-9.5,10.1l-40.5,4.6l-8.9-23.8l-6.4-23.8
	L588.4,331.7z"/>
<path id="ban-saint-martin" class="st0" d="M624.6,305l-4.3-12.5l7.3-3.5l45.5-1.9l9.3,32.1l24-7.1l2.3,9.9l-11.3,17.8
	l-18.5,4.8l-15-5.9l-3.8-10.9l-14.8-5.5l-15.1,11l-15.4-11L624.6,305z"/>
<path id="ban-saint-martin" class="st0" d="M591.4,312.2l9.5-10.3l19.4-9.4l4.3,12.5l-9.8,17.3l-26.5,9.5L591.4,312.2z"/>
<path id="ban-saint-martin" class="st0" d="M577.1,301.9l9-11.3l14.8,11.3l-9.5,10.3l-3,19.5l-15.3,5.5l-3-11L577.1,301.9z"/>
<path id="ban-saint-martin" class="st0" d="M545.6,294.2h24.5v7.7l-13.3,7.6l13.3,16.8l3,11l-11,2.8l-20.6-27.6l-10.8-2
	L545.6,294.2z"/>
<path id="ban-saint-martin" class="st0" d="M606.4,273.9l14.8-5.4l6.5,20.5l-7.3,3.5l-19.4,9.4l-14.8-11.3L606.4,273.9z"/>
<path id="ban-saint-martin" class="st0" d="M604.4,238l28.5,2l4,14l-15.8,14.5l-14.8,5.4L586,290.6l-7.4-33.4L604.4,238z"/>
<path id="ban-saint-martin" class="st0" d="M556.9,264.5l21.7-7.3l7.5,33.3l-9.3,11.3h-6.7v-7.6h-24.5l-4.5-7.1L556.9,264.5z"/>
<path id="ban-saint-martin" class="st0" d="M522.6,264.5l22-7.3l12.3,7.3l-15.8,22.6l-22.2-2.9L522.6,264.5z"/>
<path id="ban-saint-martin" class="st0" d="M496.4,234.7l17.5-4.5l7.3,11.5l1.5,22.8l-3.7,19.8l-6,13l-26.3-6.7l-1.8-45.6
	L496.4,234.7z"/>
<path id="ban-saint-martin" class="st0" d="M544.4,214.2l0.3,43l-22,7.3l-1.5-22.8l-7.3-11.5L544.4,214.2z"/>
<path id="ban-saint-martin" class="st0" d="M599.6,196.5l42,18.5l-8.8,25l-28.5-2l0.3-13.8l-25.8-12.3L599.6,196.5z"/>
<path id="ban-saint-martin" class="st0" d="M578.9,212l25.7,12.2l-0.3,13.8l-25.7,19.2l-21.8,7.3l-12.2-7.3l-0.3-43L578.9,212z"
	/>
<path id="ban-saint-martin" class="st1" d="M423.6,257.1l29.5-10.8l-1.6-34.4l26.9-2.2l8.1,5.7l10,19.3L485,245l1.6,45.5l-49,11.3l-9.5-15.9l1.5-8.3
	l-11-15.7L423.6,257.1z"/>
<path id="ban-saint-martin" class="st1" d="M602.8,183.6l-3.1,12.8L579,211.9l-34.5,2.3l-2.8-32.9l23.8,7.3l12-15.4L602.8,183.6z"/>
<path id="ban-saint-martin" class="st1" d="M577.1,301.9l-7,24.3l-13.3-16.8l13.3-7.5H577.1z"/>
<path id="ban-saint-martin" class="st1" d="M678.8,344.6v14.8l-9.8,12.4l-30.8-1.8l0.1-14.9l-44.1-7.5l-5.9-15.8l26.5-9.5l15.4,11l15.1-11l14.8,5.5
	l3.8,10.9L678.8,344.6z"/>
<path id="ban-saint-martin" class="st1" d="M610.6,424.2l-22.1,26.1l-11.2-1.6L570,429l5.2-10.1l22.1-4.2L610.6,424.2z"/>
<path id="ban-saint-martin" class="st1" d="M559.6,483.8l-1,27.8l-33,11.6l-26.5-4.3l-3.2-35l55.1-17.3L559.6,483.8z"/>
<path id="ban-saint-martin" class="st1" d="M363.9,448.6l-8.3,30.5l-9,1.5l-32.7-6.2l-14.8-28.8l-2.6-23.3l9-11.5l20.3,24.5l14.3-1.5L363.9,448.6z"/>
<path id="ban-saint-martin" class="st1" d="M405.6,393.6l-6.8,10.7L380.7,392h-24l-24.5-12.3l-8.3-5.1l-0.2-16.6l38.5,23l14.5-6.3l12.3,5.1L405.6,393.6z"
	/>
<path id="ban-saint-martin" class="st1" d="M437.9,302l-4,7.3l-32.3,7.3h-12.3l-13.5-7.2l-33.1-31.7l3-7.3l36.7,22.5l46-6.8L437.9,302z"/>
<path id="ban-saint-martin" class="st2" d="M498.3,373.2c-0.1-2.4-0.3-5.2-0.3-7.3H498c-0.6,2-1.3,4.1-2.1,6.5l-3,8.3h-1.7l-2.8-8.1
	c-0.8-2.4-1.5-4.6-2-6.6h-0.1c-0.1,2.1-0.2,5-0.3,7.5l-0.5,7.3h-2.1l1.2-17h2.8l2.9,8.2c0.7,2.1,1.3,4,1.7,5.7h0.1
	c0.4-1.7,1-3.6,1.8-5.7l3-8.2h2.8l1.1,17h-2.1L498.3,373.2z"/>
<path id="ban-saint-martin" class="st2" d="M513.1,372.7h-6.6v6.1h7.4v1.8h-9.6v-17h9.2v1.8h-7v5.4h6.6V372.7z"/>
<path id="ban-saint-martin" class="st2" d="M520.3,365.6h-5.2v-1.9h12.6v1.9h-5.2v15.1h-2.2V365.6z"/>
<path id="ban-saint-martin" class="st2" d="M528.5,379.4l9.4-13.8v-0.1h-8.6v-1.8h11.5v1.3l-9.4,13.8v0.1h9.5v1.8h-12.4V379.4z"/>
</svg>
