<?xml version="1.0" encoding="utf-8"?>
<!-- Generator: Adobe Illustrator 19.1.1, SVG Export Plug-In . SVG Version: 6.00 Build 0)  -->
<svg version="1.1" xmlns="http://www.w3.org/2000/svg" xmlns:xlink="http://www.w3.org/1999/xlink" x="0px" y="0px"
	 viewBox="104 96.9 803 661.5" style="enable-background:new 104 96.9 803 661.5;" xml:space="preserve">
<style type="text/css">
	.st0{fill:none;stroke:#000000;stroke-miterlimit:10;}
</style>
	<path id="ban-saint-martin" class="st0" d="M698.6,179.2l-38.5,31.5l-6.5,7.3l-13.5,3l-42-18.5l3.3-12.8l7.5-34.3l13.8-16
		l41,7.3L698.6,179.2z"/>
	<path id="ban-saint-martin" class="st0" d="M763.9,223l-11.5,6.5L741.6,218l-23.5-10l-19.5,38l-34.8,1.5L653.5,218l6.5-7.3
		l38.5-31.5l28.5-19.5L763.9,223z"/>
	<path id="ban-saint-martin" class="st0" d="M705.9,263.2c0,0-2.8,13.5-3,14.9S671.6,293,671.6,293l-45.5,1.9l-6.5-20.5
		l15.8-14.5l-4-14l8.8-25l13.5-3l10.3,29.5l34.8-1.5L705.9,263.2z"/>
</svg>
