<?xml version="1.0" encoding="utf-8"?>
<!-- Generator: Adobe Illustrator 19.1.1, SVG Export Plug-In . SVG Version: 6.00 Build 0)  -->
<svg version="1.1" id="Calque_1" xmlns="http://www.w3.org/2000/svg" xmlns:xlink="http://www.w3.org/1999/xlink" x="0px" y="0px"
	 viewBox="0 0 241.2 257.6" style="enable-background:new 0 0 241.2 257.6;" xml:space="preserve">
<style type="text/css">
	.st0{fill:none;stroke:#000000;stroke-miterlimit:10;}
</style>
<path class="st0" d="M147,170.8c0,0-2.8,13.5-3,14.9s-31.2,14.9-31.2,14.9l-45.5,1.9l-6.5-20.5l15.8-14.5l-4-14l8.8-25l13.5-3
	l10.3,29.5l34.7-1.5L147,170.8z M94.8,125.4l10.3,29.5l34.7-1.5l19.5-38l23.5,10l10.8,11.5l11.5-6.5l-36.8-63.3l-28.5,19.5
	l-38.5,31.5L94.8,125.4z M39.3,110.1l42,18.5l13.5-3.2l6.5-7.3l38.5-31.5l-35-32.3l-41-7.3L50,63.1L39.3,110.1z" id="metz"/>
</svg>
